<?xml version="1.0" encoding="utf-8"?>
<!-- Generator: Adobe Illustrator 16.0.3, SVG Export Plug-In . SVG Version: 6.00 Build 0)  -->
<!DOCTYPE svg PUBLIC "-//W3C//DTD SVG 1.1//EN" "http://www.w3.org/Graphics/SVG/1.1/DTD/svg11.dtd">
<svg version="1.1" id="Capa_1" xmlns="http://www.w3.org/2000/svg" xmlns:xlink="http://www.w3.org/1999/xlink" x="0px" y="0px"
	 width="770.076px" height="135px" viewBox="0 0 770.076 135" enable-background="new 0 0 770.076 135" xml:space="preserve">
<g id="Capa_2" display="none">
	<rect x="-43.618" y="-86.388" display="inline" fill="#E1B600" width="1032" height="477"/>
</g>
<g id="Capa_1_1_">
	<g>
		<path fill="#FFFFFF" d="M83.369,96.148c-0.542,0-0.836,0.252-1.065,0.44c-0.23,0.188-0.71,0.544-0.732,0.313
			c-0.02-0.229-0.041-0.188,0.208-0.355c0.25-0.168,1.191-0.671,0.794-1.176c-0.396-0.503-0.898-0.631-0.857-1.051
			c0.043-0.418,0.022-0.293,0.022-0.293s-0.146,0.125-0.272,0.104c-0.124-0.021-0.438-0.271-0.438-0.271s0,0.188-0.167,0.271
			c-0.169,0.086-0.481,0.043-0.481,0.043s0.146,0.251,0.062,0.482c-0.083,0.231-0.44,0.335-0.586,0.798
			c-0.146,0.461-0.02,0.797,0.69,1.447c-1.045-0.379-0.982-0.338-1.295-0.338c-0.314,0-0.699,0.074-0.93,0.264
			c0.229,0.502,0.282,0.536,0.533,0.724c0.25,0.19,0.209,0.337,1.044,0.337c0.836,0,1.171-0.652,1.338,0.377
			c0.083,0.441-0.251,0.756-0.022,0.84c0.23,0.084,0.774-0.043,0.774-0.672c0-0.631-0.168-0.775,0.188-0.775
			c0.355,0,0.48-0.213,0.731-0.483c0.25-0.272,0.375-0.356,0.607-0.377c0.229-0.021,0.375,0.085,0.375,0.085
			S83.913,96.148,83.369,96.148z"/>
		<rect x="87.818" y="93.706" fill="#FFFFFF" width="0.232" height="1.058"/>
		<rect x="89.05" y="91.83" fill="#FFFFFF" width="0.322" height="1.464"/>
		<path fill="#FFFFFF" d="M80.02,92.339c0.039,0.234,0.098,0.668,0.159,0.668c0.063,0,0.019-0.413,0.038-0.53
			c0.02-0.119-0.14-0.804-0.14-0.804l0.14-0.021c0,0,0.02-0.039-0.038-0.315c-0.195-0.885-0.02-0.763,0.038-0.805
			c0.06-0.038,0.079-0.097,0.274,0.472c0.136-1.316-0.039-1.646-0.137-1.746c-0.098-0.098-0.04-0.41,0.059-0.552
			c0.097-0.142,0.077-0.704,0.018-0.646c-0.058,0.06-0.412,0.256-0.627,0.354c-0.214,0.096-0.057,0.214,0.078,0.391
			C80.019,88.98,79.96,89.2,79.96,89.2s-0.176,0.039-0.41,0.039c-0.235,0-0.195,1.591-0.195,1.591s0.058-0.119,0.233-0.335
			c0.176-0.216,0.04,0.313,0.02,0.685c-0.02,0.373,0.059,0.475,0.195,0.475C79.943,91.65,79.98,92.102,80.02,92.339z"/>
		<path fill="#FFFFFF" d="M77.262,89.236c-0.236,0-0.41-0.039-0.41-0.039s-0.059-0.221,0.077-0.396
			c0.136-0.177,0.292-0.295,0.077-0.394c-0.214-0.096-0.569-0.292-0.626-0.352c-0.059-0.059-0.078,0.506,0.02,0.646
			c0.097,0.142,0.156,0.455,0.058,0.553c-0.098,0.097-0.273,0.429-0.135,1.745c0.195-0.566,0.214-0.511,0.271-0.473
			c0.06,0.043,0.234-0.079,0.04,0.805c-0.058,0.279-0.04,0.316-0.04,0.316l0.14,0.021c0,0-0.159,0.684-0.14,0.805
			c0.021,0.116-0.023,0.529,0.04,0.529c0.063,0,0.121-0.436,0.159-0.669c0.04-0.235,0.078-0.687,0.215-0.687
			c0.137,0,0.214-0.101,0.196-0.475c-0.021-0.371-0.157-0.9,0.018-0.686c0.178,0.217,0.235,0.335,0.235,0.335
			S77.496,89.236,77.262,89.236z"/>
		<path fill="#FFFFFF" d="M91.225,85.016c0,0-0.631,0-0.804,1.271c-0.175,1.271-0.587,0.884-0.497,0.185
			c0.09-0.699,0.573-1.828,0.34-2.082c-0.233-0.25-0.661,0.182-0.877-0.123c-0.018,0.463-0.178,0.479-0.305,0.553
			c-0.124,0.072-0.479,0.146-0.46,0.342c0.018,0.199,0.091,0.054,0.091,0.214c0,0.163-0.163,0.147-0.163,0.291
			s0.198,0.335,0.198,0.517c0,0.178-0.231,0.186-0.465-0.213c-0.232-0.395-0.675-1.076-0.836-0.914
			c-0.161,0.159,0.076,0.467,0.125,0.592c0.05,0.125,0.358,0.875-0.161,1.037c-0.214,0.055-0.372,0.396,0.072,0.467
			c0.443,0.072,0.919,0.088,1.164,0.394c0.246,0.306,0.139,0.197-0.023,0.287c-0.162,0.091-0.537,0.231-0.537,0.36
			c0,0.123,0.071,0.805-0.125,1.07c-0.198,0.27-0.229,0.396-0.354,0.504c0.121,0.145,0.193,0.252,0.497,0.231
			c0.107-0.413,0.496-0.897,0.729-0.86c0,0,0.178-0.097,0.178-0.361c0-0.264,0.144-0.623,0.358-0.623
			c0.215,0,0.413,0.605,0.608,0.605c0.198,0,0.359,0.27,0.179,0.432c-0.179,0.162-0.591,0.36-0.376,0.558
			c0.215,0.196,0.389,0.217,0.784-0.071c0.393-0.287,0.089-0.553,0.089-1.164s0.215-1.863,0.304-2.171
			c0.18,0.036,0.305-0.186,0.305-0.321c0-0.14-0.107-0.299-0.107-0.645C91.153,85.032,91.225,85.016,91.225,85.016z"/>
		<path fill="#FFFFFF" d="M91.422,74.835c0.102-0.146,0.082-0.742,0.02-0.679c-0.061,0.061-0.435,0.268-0.66,0.369
			c-0.226,0.104-0.062,0.228,0.082,0.412c0.143,0.188,0.082,0.418,0.082,0.418s-0.185,0.039-0.432,0.039
			c-0.247,0-0.205,1.674-0.205,1.674s0.062-0.123,0.247-0.348c0.185-0.229,0.041,0.329,0.021,0.721
			c-0.021,0.39,0.062,0.498,0.206,0.498c0.144,0,0.184,0.474,0.225,0.721c0.041,0.248,0.102,0.703,0.167,0.703
			c0.066,0,0.021-0.438,0.042-0.559c0.02-0.125-0.147-0.846-0.147-0.846l0.147-0.021c0,0,0.02-0.041-0.042-0.334
			c-0.204-0.932-0.021-0.804,0.042-0.845c0.061-0.043,0.081-0.102,0.286,0.493c0.146-1.385-0.041-1.734-0.142-1.837
			C91.258,75.313,91.319,74.984,91.422,74.835z"/>
		<path fill="#FFFFFF" d="M88.155,75.395c-0.246,0-0.43-0.039-0.43-0.039s-0.064-0.229,0.081-0.418
			c0.144-0.185,0.308-0.307,0.083-0.41c-0.228-0.104-0.599-0.311-0.661-0.37c-0.062-0.063-0.082,0.534,0.021,0.679
			c0.104,0.148,0.165,0.479,0.063,0.582c-0.103,0.104-0.289,0.454-0.144,1.837c0.206-0.595,0.226-0.536,0.287-0.493
			c0.061,0.041,0.247-0.087,0.042,0.846c-0.063,0.293-0.042,0.334-0.042,0.334l0.148,0.021c0,0-0.168,0.722-0.148,0.847
			c0.02,0.121-0.023,0.558,0.042,0.558c0.064,0,0.126-0.455,0.167-0.703c0.042-0.247,0.084-0.722,0.228-0.722
			s0.225-0.107,0.205-0.498c-0.021-0.393-0.166-0.949,0.019-0.721c0.185,0.227,0.247,0.348,0.247,0.348S88.403,75.395,88.155,75.395
			z"/>
		<path fill="#FFFFFF" d="M75.021,78.014c0,0-0.631,0-0.807,1.271c-0.174,1.271-0.585,0.886-0.496,0.186
			c0.089-0.703,0.572-1.83,0.339-2.08c-0.233-0.252-0.662,0.178-0.877-0.127c-0.018,0.463-0.18,0.481-0.305,0.553
			c-0.125,0.072-0.479,0.145-0.459,0.342c0.016,0.197,0.088,0.056,0.088,0.218c0,0.161-0.161,0.146-0.161,0.287
			c0,0.146,0.197,0.338,0.197,0.519c0,0.18-0.233,0.184-0.466-0.211c-0.233-0.396-0.675-1.08-0.837-0.916
			c-0.162,0.161,0.076,0.467,0.125,0.592c0.049,0.127,0.359,0.877-0.16,1.041c-0.215,0.053-0.373,0.395,0.072,0.467
			c0.442,0.074,0.918,0.082,1.164,0.391c0.248,0.305,0.139,0.198-0.022,0.287c-0.162,0.091-0.538,0.234-0.538,0.359
			s0.072,0.803-0.125,1.072c-0.198,0.271-0.228,0.397-0.353,0.504c0.119,0.145,0.191,0.25,0.495,0.234
			c0.108-0.414,0.497-0.898,0.73-0.865c0,0,0.178-0.094,0.178-0.357s0.144-0.627,0.359-0.627c0.215,0,0.41,0.606,0.609,0.606
			c0.196,0,0.357,0.271,0.178,0.435c-0.178,0.162-0.59,0.356-0.375,0.557c0.216,0.197,0.39,0.216,0.783-0.073
			c0.396-0.286,0.09-0.552,0.09-1.161c0-0.613,0.216-1.867,0.306-2.172c0.178,0.038,0.304-0.186,0.304-0.322
			c0-0.142-0.106-0.303-0.106-0.644C74.949,78.031,75.021,78.014,75.021,78.014z"/>
		<path fill="#FFFFFF" d="M80.44,71.244c0,0-0.633,0-0.807,1.271c-0.173,1.271-0.585,0.885-0.496,0.187
			c0.09-0.701,0.573-1.83,0.34-2.081c-0.231-0.25-0.663,0.18-0.877-0.126c-0.017,0.463-0.179,0.481-0.304,0.554
			s-0.478,0.145-0.46,0.342c0.017,0.196,0.089,0.055,0.089,0.217s-0.161,0.144-0.161,0.285c0,0.145,0.196,0.338,0.196,0.518
			s-0.234,0.186-0.465-0.21s-0.675-1.079-0.836-0.917c-0.162,0.162,0.076,0.468,0.125,0.594c0.049,0.127,0.356,0.878-0.163,1.039
			c-0.215,0.053-0.37,0.396,0.074,0.468c0.442,0.071,0.917,0.084,1.164,0.392c0.245,0.305,0.138,0.197-0.023,0.287
			s-0.538,0.232-0.538,0.358c0,0.125,0.072,0.804-0.125,1.073c-0.197,0.271-0.227,0.396-0.353,0.502
			c0.121,0.146,0.192,0.253,0.495,0.234c0.109-0.412,0.497-0.897,0.729-0.863c0,0,0.18-0.094,0.18-0.358
			c0-0.268,0.143-0.625,0.358-0.625c0.213,0,0.411,0.605,0.608,0.605c0.198,0,0.358,0.271,0.178,0.433
			c-0.178,0.163-0.59,0.359-0.375,0.557c0.214,0.199,0.39,0.217,0.782-0.071c0.395-0.287,0.09-0.552,0.09-1.162
			c0-0.611,0.214-1.865,0.304-2.17c0.18,0.032,0.305-0.188,0.305-0.327c0-0.137-0.106-0.299-0.106-0.643
			C80.368,71.264,80.44,71.244,80.44,71.244z"/>
		<circle fill="#FFFFFF" cx="60.019" cy="20.722" r="0.957"/>
		<path fill="#FFFFFF" d="M47.255,25.069c0.122-0.029,0.239-0.032,0.363-0.045c-0.221-1.066-0.341-2.148-0.475-3.521
			c0.846,1.056,1.711,2.091,2.436,3.027c0.094-0.046,0.184-0.059,0.286-0.067c0.266-1.297,0.565-2.589,0.872-3.88
			c0.382,1.14,0.8,2.265,1.138,3.456c0.208-0.064,0.392-0.131,0.604-0.179c0.21-0.05,0.418-0.075,0.634-0.109
			c-0.604-1.447-1.156-3.058-1.859-5.043c-0.102,0.04-0.21,0.089-0.316,0.113c-0.105,0.025-0.215,0.026-0.325,0.037
			c-0.275,1.428-0.644,2.766-0.939,3.967c-0.87-1.051-1.737-2.094-2.555-3.159c-0.102,0.04-0.202,0.087-0.308,0.112
			c-0.106,0.025-0.209,0.025-0.319,0.034c0.184,1.976,0.347,3.79,0.425,5.375C47.034,25.144,47.135,25.098,47.255,25.069z"/>
		<path fill="#FFFFFF" d="M44.299,26.078c0.103-0.036,0.213-0.049,0.32-0.069c0.024-1.94,0.177-3.837,0.315-5.75
			c-0.104,0.051-0.22,0.1-0.329,0.138c-0.111,0.039-0.23,0.071-0.345,0.096c0.022,1.357-0.038,2.733-0.123,4.111
			c-0.857-1.068-1.767-2.096-2.543-3.191c-0.207,0.089-0.42,0.186-0.633,0.259c-0.211,0.073-0.438,0.127-0.656,0.187
			c1.261,1.431,2.49,2.866,3.692,4.365C44.095,26.173,44.191,26.118,44.299,26.078z"/>
		<path fill="#FFFFFF" d="M37.454,29.222c0.09-0.042,0.195-0.077,0.289-0.114L36.1,25.725l1.146,0.427
			c1.189,0.446,2.36,0.938,3.605,1.444l0.594-0.284l-2.329-4.794c-0.083,0.059-0.178,0.113-0.269,0.157
			c-0.091,0.044-0.192,0.085-0.289,0.116l1.588,3.27c-1.527-0.645-3.081-1.2-4.595-1.799l-0.689,0.337l2.321,4.78
			C37.272,29.329,37.362,29.268,37.454,29.222z"/>
		<path fill="#FFFFFF" d="M29.644,35.218c0.507-0.458,0.916-1.036,1.304-1.649l-1.436-1.602c-0.133,0.144-0.26,0.289-0.405,0.419
			c-0.144,0.131-0.303,0.245-0.458,0.362l1.213,1.353c-0.065,0.205-0.202,0.473-0.489,0.734c-0.875,0.792-1.92,0.646-2.822-0.357
			c-0.871-0.972-1.181-2.271-0.22-3.139c0.453-0.413,1.049-0.584,1.662-0.436l0.081-0.074c-0.153-0.217-0.278-0.471-0.362-0.728
			c-0.654,0.143-1.209,0.453-1.704,0.901c-1.33,1.202-1.719,2.882-0.429,4.322C26.8,36.683,28.43,36.316,29.644,35.218z"/>
		<path fill="#FFFFFF" d="M15.748,58.713c0.023-0.13,0.04-0.254,0.071-0.383c0.033-0.128,0.076-0.245,0.117-0.372
			c-0.177-0.156-0.475-0.432-0.702-0.672l-0.911-0.964c0.714-0.174,1.429-0.356,2.163-0.518c0.04-0.223,0.071-0.447,0.124-0.659
			c0.054-0.219,0.13-0.432,0.199-0.647c-1.08,0.235-2.078,0.522-3.088,0.798l-0.197,0.054c-0.34-0.397-0.682-0.789-1.023-1.185
			l-0.839-0.989c-0.018,0.133-0.04,0.256-0.073,0.384c-0.029,0.121-0.068,0.247-0.113,0.363c0.508,0.553,1.029,1.061,1.534,1.596
			c-0.684,0.159-1.362,0.35-2.051,0.481c-0.041,0.231-0.072,0.455-0.128,0.681c-0.056,0.227-0.134,0.438-0.204,0.663l3.148-0.854
			C14.44,57.198,15.08,57.93,15.748,58.713z"/>
		<path fill="#FFFFFF" d="M15.547,59.332c-0.108-0.001-0.227,0.002-0.334-0.014c-0.107-0.017-0.219-0.059-0.322-0.091
			c-0.013,0.478-0.057,1.008-0.174,1.792l-1.942-0.309l0.126-0.797c0.055-0.346,0.134-0.656,0.218-0.934
			c-0.109-0.001-0.227,0.003-0.335-0.014c-0.109-0.016-0.218-0.058-0.323-0.091c-0.006,0.292-0.025,0.611-0.081,0.956l-0.125,0.799
			l-1.645-0.264c0.108-0.785,0.252-1.299,0.387-1.758c-0.11-0.001-0.229,0.003-0.335-0.014c-0.105-0.017-0.218-0.06-0.322-0.09
			l-0.461,2.925l5.208,0.829L15.547,59.332z"/>
		<path fill="#FFFFFF" d="M16.792,82.547c-0.221-0.646-0.592-1.252-1.002-1.849l-2.03,0.7c0.077,0.181,0.162,0.354,0.226,0.539
			c0.063,0.186,0.103,0.377,0.15,0.563l1.715-0.593c0.163,0.142,0.356,0.369,0.482,0.738c0.384,1.119-0.157,2.029-1.43,2.47
			c-1.23,0.426-2.542,0.206-2.963-1.022c-0.199-0.58-0.125-1.199,0.25-1.708l-0.036-0.102c-0.259,0.055-0.542,0.069-0.811,0.049
			c-0.126,0.662-0.057,1.294,0.16,1.927c0.582,1.698,1.972,2.715,3.794,2.086C17.022,85.75,17.324,84.1,16.792,82.547z"/>
		<path fill="#FFFFFF" d="M19.379,89.163c-0.083-0.177-0.148-0.36-0.221-0.543l-4.774,2.339c0.099,0.168,0.205,0.332,0.289,0.508
			c0.085,0.174,0.148,0.359,0.22,0.54l4.775-2.339C19.571,89.5,19.465,89.337,19.379,89.163z"/>
		<path fill="#FFFFFF" d="M20.138,90.723c-0.086,0.067-0.174,0.146-0.269,0.199c-0.096,0.055-0.208,0.094-0.309,0.133
			c0.29,0.379,0.587,0.818,0.989,1.502l-1.703,0.986l-0.404-0.7c-0.173-0.303-0.305-0.594-0.417-0.862
			c-0.086,0.067-0.174,0.146-0.269,0.201c-0.095,0.053-0.207,0.092-0.309,0.131c0.177,0.231,0.363,0.494,0.536,0.795l0.403,0.701
			l-1.44,0.836c-0.41-0.68-0.618-1.168-0.801-1.609c-0.085,0.068-0.175,0.146-0.269,0.201c-0.094,0.054-0.207,0.092-0.309,0.134
			l1.477,2.563l4.567-2.646L20.138,90.723z"/>
		<path fill="#FFFFFF" d="M27.427,105.787c1.248-1.393-0.768-2.607,0.063-3.531c0.358-0.4,0.856-0.314,1.212,0.006
			c0.397,0.36,0.496,0.877,0.223,1.354l0.111,0.099c0.256-0.218,0.539-0.402,0.824-0.584c-0.115-0.419-0.388-0.799-0.704-1.086
			c-0.892-0.809-2.002-0.847-2.666-0.107c-1.188,1.323,0.692,2.761-0.008,3.543c-0.295,0.328-0.687,0.403-1.14-0.006
			c-0.328-0.3-0.373-0.693-0.212-1.104l-0.086-0.078c-0.234,0.145-0.462,0.283-0.698,0.404c0.019,0.236,0.246,0.726,0.661,1.101
			C25.884,106.591,26.832,106.452,27.427,105.787z"/>
		<path fill="#FFFFFF" d="M32.167,104.702c-1.615,1.065-3.265,1.999-4.922,2.952c0.101,0.059,0.206,0.129,0.299,0.197
			c0.092,0.069,0.187,0.15,0.271,0.234c1.106-0.779,2.279-1.5,3.463-2.201c-0.402,1.313-0.742,2.645-1.213,3.903
			c0.189,0.123,0.389,0.245,0.568,0.38c0.18,0.137,0.351,0.295,0.52,0.443c0.478-1.85,0.975-3.674,1.541-5.516
			c-0.096-0.051-0.197-0.098-0.29-0.17C32.316,104.864,32.244,104.779,32.167,104.702z"/>
		<path fill="#FFFFFF" d="M44.351,111.557l-1.403,3.488l-0.453-1.141c-0.466-1.188-0.885-2.389-1.343-3.656l-0.607-0.255
			l-1.99,4.948c0.099,0.022,0.203,0.058,0.296,0.094c0.094,0.039,0.19,0.085,0.278,0.138l1.359-3.373
			c0.544,1.571,1.174,3.103,1.744,4.634l0.711,0.289l1.984-4.933c-0.096-0.031-0.204-0.058-0.296-0.095
			C44.537,111.656,44.441,111.6,44.351,111.557z"/>
		<path fill="#FFFFFF" d="M55.593,114.128l-0.586,3.718l-0.695-1.008c-0.721-1.051-1.397-2.126-2.129-3.261l-0.648-0.11
			l-0.832,5.268c0.102,0,0.21,0.012,0.309,0.025c0.1,0.02,0.205,0.043,0.303,0.073l0.567-3.595c0.884,1.41,1.839,2.757,2.737,4.121
			l0.757,0.119l0.828-5.254c-0.101-0.007-0.21-0.009-0.309-0.023C55.796,114.184,55.69,114.15,55.593,114.128z"/>
		<path fill="#FFFFFF" d="M58.288,114.245c-0.194-0.013-0.385-0.044-0.578-0.07l-0.277,5.329c0.195-0.009,0.389-0.021,0.582-0.012
			c0.193,0.014,0.386,0.046,0.579,0.07l0.278-5.328C58.676,114.242,58.482,114.254,58.288,114.245z"/>
		<path fill="#FFFFFF" d="M71.066,112.952c0.045,0.1,0.099,0.206,0.129,0.31c0.03,0.104,0.04,0.225,0.054,0.334
			c0.438-0.191,0.933-0.375,1.69-0.601l0.543,1.896l-0.774,0.226c-0.335,0.097-0.648,0.153-0.936,0.196
			c0.045,0.101,0.099,0.205,0.129,0.311c0.028,0.104,0.04,0.225,0.055,0.332c0.266-0.115,0.561-0.234,0.896-0.331l0.774-0.224
			l0.458,1.607c-0.755,0.233-1.279,0.321-1.75,0.393c0.045,0.101,0.1,0.205,0.13,0.31c0.028,0.104,0.039,0.226,0.053,0.333
			l2.836-0.816l-1.453-5.091L71.066,112.952z"/>
		<path fill="#FFFFFF" d="M77.14,110.93c-0.178,0.074-0.369,0.125-0.552,0.184l0.96,2.385l-0.754,0.309
			c-0.287,0.115-0.589,0.194-0.901,0.291c0.054,0.094,0.12,0.192,0.16,0.295c0.041,0.101,0.063,0.219,0.09,0.324
			c0.286-0.156,0.563-0.305,0.842-0.418l0.761-0.308l0.624,1.55c-0.754,0.307-1.24,0.445-1.699,0.57
			c0.055,0.097,0.12,0.195,0.161,0.297c0.04,0.101,0.062,0.217,0.088,0.324l2.736-1.11l-1.99-4.947
			C77.492,110.764,77.319,110.855,77.14,110.93z"/>
		<path fill="#FFFFFF" d="M82.018,109.848c-0.267-0.466-0.033-0.916,0.383-1.156c0.462-0.271,0.983-0.201,1.352,0.203l0.128-0.074
			c-0.127-0.313-0.216-0.639-0.297-0.967c-0.432-0.02-0.878,0.121-1.247,0.338c-1.041,0.604-1.422,1.649-0.924,2.511
			c0.887,1.543,2.827,0.192,3.351,1.1c0.22,0.384,0.171,0.781-0.359,1.089c-0.383,0.221-0.769,0.141-1.108-0.138l-0.102,0.06
			c0.067,0.266,0.126,0.527,0.17,0.791c0.23,0.053,0.764-0.014,1.245-0.293c1.02-0.59,1.182-1.537,0.737-2.313
			C84.412,109.375,82.638,110.924,82.018,109.848z"/>
		<path fill="#FFFFFF" d="M86.063,105.934c-0.088,0.063-0.191,0.104-0.289,0.154c0.511,1.872,0.885,3.735,1.278,5.616
			c0.085-0.08,0.183-0.158,0.278-0.228c0.095-0.064,0.201-0.129,0.303-0.185c-0.393-1.3-0.714-2.64-1.011-3.987
			c1.117,0.791,2.274,1.526,3.321,2.363c0.174-0.143,0.352-0.294,0.536-0.424c0.183-0.129,0.388-0.246,0.58-0.361
			c-1.606-1.027-3.179-2.064-4.747-3.174C86.234,105.787,86.156,105.865,86.063,105.934z"/>
		<path fill="#FFFFFF" d="M92.019,100.909c-0.075,0.065-0.167,0.126-0.247,0.19l2.508,2.797l-1.218-0.094
			c-1.267-0.101-2.526-0.248-3.862-0.39l-0.496,0.437l3.554,3.965c0.064-0.078,0.141-0.16,0.216-0.226
			c0.074-0.069,0.161-0.135,0.245-0.192l-2.426-2.701c1.646,0.197,3.292,0.296,4.912,0.455l0.569-0.517l-3.543-3.95
			C92.163,100.757,92.094,100.841,92.019,100.909z"/>
		<path fill="#FFFFFF" d="M93.647,99.123c-0.129,0.145-0.277,0.273-0.419,0.406l3.948,3.568c0.118-0.154,0.231-0.313,0.359-0.459
			c0.129-0.146,0.277-0.272,0.418-0.406l-3.948-3.568C93.889,98.818,93.777,98.979,93.647,99.123z"/>
		<path fill="#FFFFFF" d="M100.787,97.512c-0.199,0.354-0.45,0.779-0.78,1.223l-3.804-2.879c-0.104,0.164-0.202,0.334-0.319,0.488
			c-0.116,0.154-0.251,0.297-0.381,0.441l3.804,2.879c-0.284,0.375-0.603,0.711-0.92,1.045c0.097,0.053,0.197,0.1,0.289,0.172
			c0.087,0.064,0.16,0.148,0.235,0.227l2.402-3.198c-0.096-0.054-0.198-0.101-0.283-0.164
			C100.937,97.674,100.862,97.59,100.787,97.512z"/>
		<path fill="#FFFFFF" d="M99.958,90.124c-0.052,0.086-0.122,0.172-0.179,0.255l3.212,1.939l-1.191,0.269
			c-1.24,0.276-2.488,0.505-3.807,0.763l-0.346,0.562l4.554,2.747c0.04-0.094,0.088-0.19,0.139-0.277
			c0.052-0.087,0.114-0.176,0.179-0.254l-3.106-1.874c1.631-0.297,3.234-0.68,4.83-1.008l0.396-0.658l-4.542-2.739
			C100.051,89.938,100.008,90.039,99.958,90.124z"/>
		<path fill="#FFFFFF" d="M100.608,88.829c0.106,0.03,0.222,0.057,0.32,0.101c0.1,0.045,0.198,0.113,0.29,0.17
			c0.135-0.457,0.314-0.955,0.628-1.686l1.797,0.803l-0.328,0.741c-0.141,0.319-0.298,0.599-0.451,0.845
			c0.104,0.031,0.221,0.057,0.321,0.1c0.1,0.046,0.195,0.113,0.289,0.172c0.082-0.277,0.182-0.581,0.323-0.901l0.327-0.739
			l1.522,0.682c-0.307,0.73-0.578,1.188-0.828,1.596c0.106,0.03,0.221,0.055,0.32,0.102c0.101,0.043,0.198,0.111,0.289,0.172
			l1.199-2.705l-4.818-2.153L100.608,88.829z"/>
		<path fill="#FFFFFF" d="M102.215,85.123c0.108,0.02,0.225,0.035,0.327,0.072c0.102,0.033,0.205,0.095,0.302,0.146
			c0.121-0.519,0.255-1.079,0.475-1.719l4.459,1.539c0.048-0.188,0.09-0.379,0.153-0.563c0.064-0.184,0.148-0.359,0.226-0.539
			l-4.987-1.725L102.215,85.123z"/>
		<path fill="#FFFFFF" d="M104.819,74.343c-0.017,0.108-0.056,0.212-0.09,0.318c1.697,0.931,3.292,1.957,4.91,2.978
			c0.003-0.117,0.015-0.242,0.032-0.356c0.018-0.114,0.045-0.237,0.08-0.351c-1.205-0.613-2.388-1.314-3.561-2.037
			c1.343-0.26,2.672-0.584,4.001-0.759c0.02-0.224,0.034-0.459,0.07-0.682c0.034-0.224,0.093-0.451,0.145-0.669
			c-1.851,0.445-3.688,0.861-5.571,1.224C104.833,74.119,104.838,74.229,104.819,74.343z"/>
		<path fill="#FFFFFF" d="M105.103,67.607c0.025,0.194,0.059,0.386,0.069,0.581c0.011,0.193-0.002,0.39-0.008,0.584l5.305-0.278
			c-0.026-0.194-0.06-0.386-0.07-0.58c-0.011-0.194,0.003-0.39,0.008-0.585L105.103,67.607z"/>
		<path fill="#FFFFFF" d="M104.917,63.853c0.022,0.107,0.05,0.215,0.056,0.331c0.006,0.109-0.012,0.219-0.021,0.328
			c1.852,0.556,3.623,1.227,5.418,1.886c-0.021-0.117-0.035-0.237-0.042-0.355c-0.006-0.117-0.004-0.242,0.005-0.359
			c-1.306-0.351-2.608-0.791-3.905-1.25c1.261-0.533,2.494-1.127,3.757-1.575c-0.028-0.226-0.064-0.456-0.075-0.682
			c-0.013-0.225,0-0.461,0.003-0.686C108.396,62.315,106.685,63.104,104.917,63.853z"/>
		<path fill="#FFFFFF" d="M98.222,44.524c0.08-0.075,0.16-0.161,0.25-0.224c0.089-0.063,0.197-0.11,0.294-0.159
			c-0.322-0.353-0.656-0.766-1.115-1.41l1.611-1.133l0.463,0.664c0.2,0.286,0.357,0.565,0.489,0.822
			c0.079-0.075,0.163-0.161,0.25-0.223c0.088-0.063,0.197-0.11,0.295-0.161c-0.196-0.213-0.404-0.457-0.604-0.742l-0.462-0.664
			l1.364-0.958c0.466,0.641,0.717,1.111,0.938,1.535c0.08-0.075,0.163-0.162,0.25-0.224c0.09-0.063,0.198-0.109,0.294-0.16
			l-1.691-2.428l-4.321,3.038L98.222,44.524z"/>
		<path fill="#FFFFFF" d="M88.341,33.375c0.075,0.066,0.145,0.152,0.215,0.225l2.509-2.797l0.035,1.225
			c0.034,1.276,0.019,2.549,0.018,3.899l0.484,0.447l3.556-3.963c-0.086-0.058-0.172-0.124-0.246-0.192
			c-0.075-0.067-0.15-0.146-0.216-0.224l-2.423,2.703c0.022-1.664-0.047-3.317-0.062-4.952l-0.57-0.514l-3.544,3.951
			C88.176,33.244,88.267,33.306,88.341,33.375z"/>
		<path fill="#FFFFFF" d="M79.051,27.6c0.121,0.052,0.238,0.095,0.357,0.154c0.117,0.061,0.22,0.132,0.332,0.197
			c0.193-0.137,0.527-0.367,0.811-0.536l1.142-0.671c0.008,0.738,0.023,1.478,0.013,2.232c0.207,0.088,0.419,0.17,0.612,0.27
			c0.198,0.103,0.39,0.225,0.583,0.341c0.016-1.108-0.04-2.149-0.08-3.199l-0.009-0.205c0.463-0.244,0.917-0.49,1.38-0.734
			l1.147-0.599c-0.123-0.046-0.237-0.096-0.355-0.156c-0.11-0.057-0.224-0.123-0.328-0.193c-0.65,0.373-1.26,0.769-1.894,1.142
			c0.002-0.704-0.029-1.412-0.003-2.114c-0.214-0.092-0.426-0.172-0.632-0.279c-0.208-0.104-0.396-0.229-0.596-0.348l0.122,3.272
			C80.814,26.659,79.961,27.124,79.051,27.6z"/>
		<path fill="#FFFFFF" d="M78.599,27.011c0.042-0.101,0.106-0.201,0.162-0.296c-0.463-0.12-0.964-0.282-1.7-0.572l0.736-1.832
			l0.748,0.303c0.322,0.131,0.604,0.28,0.857,0.424c0.027-0.107,0.049-0.224,0.088-0.325c0.042-0.1,0.105-0.2,0.162-0.296
			c-0.281-0.072-0.586-0.162-0.91-0.293l-0.746-0.304l0.623-1.55c0.739,0.283,1.204,0.539,1.617,0.774
			c0.025-0.106,0.049-0.224,0.089-0.324c0.042-0.101,0.106-0.2,0.16-0.296l-2.734-1.11l-1.976,4.91l2.735,1.11
			C78.538,27.229,78.561,27.111,78.599,27.011z"/>
		<path fill="#FFFFFF" d="M74.839,25.387c0.027-0.106,0.078-0.213,0.119-0.316c-0.524-0.074-1.092-0.161-1.747-0.325l1.141-4.594
			c-0.193-0.032-0.386-0.057-0.574-0.103c-0.188-0.047-0.37-0.117-0.553-0.179l-1.276,5.137l2.848,0.712
			C74.808,25.612,74.813,25.492,74.839,25.387z"/>
		<path fill="#FFFFFF" d="M59.913,15.666C30.69,15.666,7,39.453,7,68.797s23.69,53.13,52.913,53.13
			c29.224,0,52.914-23.786,52.914-53.13C112.826,39.452,89.137,15.666,59.913,15.666z M59.913,120.832
			c-28.621,0-51.823-23.295-51.823-52.035c0-28.739,23.202-52.036,51.823-52.036c28.623,0,51.823,23.298,51.823,52.036
			C111.735,97.537,88.535,120.832,59.913,120.832z"/>
		<path fill="#FFFFFF" d="M66.964,23.963c0.23-0.505,0.496-0.952,0.786-1.505l1.782,0.284c0.125,0.547,0.205,1.094,0.291,1.692
			c0.224,0.02,0.442,0.03,0.665,0.066c0.221,0.034,0.431,0.091,0.651,0.141l-1.292-5.676c-0.102,0-0.195-0.007-0.295-0.022
			c-0.098-0.016-0.189-0.038-0.287-0.07l-3.028,4.974c0.125,0.011,0.25,0.016,0.372,0.036C66.73,23.903,66.844,23.938,66.964,23.963
			z M69.033,20.347l0.399,1.899l-1.4-0.223L69.033,20.347z"/>
		<path fill="#FFFFFF" d="M83.678,29.969c0.1,0.074,0.184,0.158,0.278,0.239c0.439-0.341,0.882-0.607,1.396-0.958l1.442,1.09
			c-0.145,0.543-0.332,1.064-0.535,1.63c0.189,0.124,0.375,0.236,0.555,0.373c0.179,0.136,0.339,0.285,0.509,0.434l1.513-5.622
			c-0.089-0.047-0.169-0.098-0.249-0.159s-0.149-0.122-0.221-0.197l-5,2.967C83.473,29.833,83.58,29.895,83.678,29.969z
			 M87.473,27.992l-0.536,1.862l-1.133-0.857L87.473,27.992z"/>
		<path fill="#FFFFFF" d="M94.051,39.035c1.063,1.185,2.658,1.407,3.959,0.231c0.944-0.853,1.344-2.138,0.283-3.416l-1.772-1.977
			l-3.919,3.543L94.051,39.035z M96.964,35.042l0.507,0.567c0.731,0.814,0.767,1.714-0.316,2.692
			c-1.347,1.217-2.288,0.968-3.002,0.173l-0.441-0.493L96.964,35.042z"/>
		<path fill="#FFFFFF" d="M99.02,45.908c0.099,0.17,0.173,0.35,0.256,0.524l2.153-1.247l0.027,0.047
			c-0.17,0.297-0.369,0.664-0.493,0.869l-0.947,1.619c0.129,0.194,0.266,0.384,0.382,0.585c0.121,0.208,0.217,0.422,0.319,0.632
			l0.266-0.504c0.391-0.767,0.767-1.54,1.199-2.284c0.495,0.547,1.153,0.732,1.812,0.351c0.456-0.266,0.641-0.642,0.622-1.143
			c-0.016-0.368-0.312-0.852-0.495-1.168l-0.824-1.434l-4.602,2.667C98.805,45.585,98.923,45.739,99.02,45.908z M103.515,43.976
			c0.236,0.412,0.58,0.885,0.085,1.315c-0.125,0.108-0.222,0.175-0.316,0.229c-0.69,0.401-1.228,0.245-1.567-0.502L103.515,43.976z"
			/>
		<path fill="#FFFFFF" d="M102.138,52.271c0.064,0.185,0.105,0.375,0.153,0.565l2.204-0.762c0.454,1.325,1.06,2.183,2.363,1.733
			c0.827-0.288,1.047-0.979,0.698-2l-0.621-1.809l-5.022,1.738C101.992,51.913,102.075,52.088,102.138,52.271z M106.918,51.236
			l0.157,0.457c0.131,0.381-0.155,0.818-0.74,1.019c-0.447,0.155-0.924,0.124-1.22-0.311c-0.089-0.14-0.155-0.308-0.219-0.468
			L106.918,51.236z"/>
		<path fill="#FFFFFF" d="M103.535,56.478c0.043,0.191,0.064,0.386,0.093,0.577l2.272-0.525c0.313,1.363,0.827,2.282,2.169,1.971
			c0.853-0.198,1.144-0.864,0.902-1.918l-0.428-1.864l-5.176,1.2C103.426,56.105,103.491,56.288,103.535,56.478z M108.397,55.951
			l0.108,0.469c0.091,0.395-0.238,0.797-0.842,0.938c-0.46,0.105-0.932,0.024-1.181-0.437c-0.075-0.15-0.123-0.322-0.169-0.487
			L108.397,55.951z"/>
		<path fill="#FFFFFF" d="M104.53,77.011c-0.029,0.12-0.072,0.229-0.11,0.349c0.483,0.272,0.901,0.58,1.424,0.916l-0.438,1.76
			c-0.554,0.076-1.104,0.109-1.704,0.141c-0.041,0.223-0.07,0.442-0.123,0.66c-0.054,0.219-0.13,0.426-0.198,0.639l5.745-0.798
			c0.008-0.102,0.023-0.194,0.047-0.29c0.025-0.102,0.056-0.188,0.095-0.281l-4.673-3.463
			C104.575,76.766,104.562,76.889,104.53,77.011z M106.253,78.596l1.575,1.146l-1.917,0.233L106.253,78.596z"/>
		<path fill="#FFFFFF" d="M69.458,113.329c-0.191,0.032-0.385,0.044-0.579,0.063l0.431,2.457l-0.054,0.008
			c-0.219-0.262-0.494-0.576-0.644-0.76l-1.19-1.449c-0.226,0.059-0.45,0.121-0.679,0.16c-0.237,0.041-0.471,0.061-0.701,0.084
			l0.381,0.422c0.582,0.633,1.179,1.254,1.728,1.912c-0.682,0.279-1.079,0.84-0.947,1.59c0.092,0.521,0.381,0.826,0.854,0.977
			c0.351,0.114,0.903-0.001,1.263-0.063l1.625-0.289l-0.921-5.254C69.834,113.239,69.65,113.293,69.458,113.329z M68.468,117.864
			c-0.059-0.157-0.087-0.271-0.105-0.376c-0.139-0.79,0.19-1.243,1.004-1.307l0.36,2.051
			C69.264,118.314,68.703,118.475,68.468,117.864z"/>
		<path fill="#FFFFFF" d="M62.961,114.191c-1.585,0.082-2.761,1.188-2.669,2.942c0.065,1.274,0.809,2.396,2.466,2.371l2.645-0.14
			l-0.274-5.29L62.961,114.191z M63.461,119.018c-1.09,0.059-1.808-0.479-1.885-1.939c-0.094-1.818,0.689-2.396,1.757-2.454
			l0.657-0.033l0.23,4.386L63.461,119.018z"/>
		<path fill="#FFFFFF" d="M49.928,113.182c-0.272,0.485-0.577,0.906-0.915,1.43l-1.75-0.438c-0.077-0.557-0.107-1.107-0.142-1.71
			c-0.222-0.039-0.437-0.069-0.656-0.125c-0.218-0.054-0.422-0.131-0.636-0.198l0.794,5.769c0.101,0.01,0.193,0.022,0.291,0.05
			c0.098,0.021,0.185,0.055,0.279,0.094l3.448-4.688c-0.122-0.023-0.246-0.039-0.364-0.069
			C50.154,113.262,50.045,113.219,49.928,113.182z M47.554,116.604l-0.232-1.926l1.375,0.344L47.554,116.604z"/>
		<path fill="#FFFFFF" d="M37.309,108.257c-1.362-0.819-2.951-0.565-3.853,0.942c-0.653,1.094-0.664,2.438,0.725,3.348l2.27,1.37
			l2.718-4.539L37.309,108.257z M35.688,112.928l-0.651-0.391c-0.935-0.564-1.231-1.415-0.481-2.668
			c0.934-1.563,1.906-1.602,2.822-1.047l0.565,0.34L35.688,112.928z"/>
		<path fill="#FFFFFF" d="M23.973,96.553c-0.979-1.256-2.555-1.589-3.934-0.507c-1.001,0.785-1.49,2.039-0.519,3.388l1.629,2.096
			l4.156-3.26L23.973,96.553z M20.79,100.333l-0.467-0.601c-0.672-0.863-0.644-1.765,0.502-2.664c1.428-1.12,2.35-0.808,3.008,0.037
			l0.405,0.522L20.79,100.333z"/>
		<path fill="#FFFFFF" d="M15.614,78.729c-0.034-0.191-0.046-0.388-0.063-0.582l-2.447,0.434l-0.012-0.053
			c0.262-0.221,0.575-0.498,0.76-0.647l1.442-1.194c-0.056-0.228-0.119-0.451-0.159-0.683c-0.042-0.235-0.06-0.471-0.086-0.703
			l-0.419,0.382c-0.63,0.586-1.246,1.186-1.906,1.736c-0.278-0.686-0.835-1.084-1.583-0.954c-0.519,0.095-0.82,0.384-0.973,0.861
			c-0.112,0.352,0.002,0.907,0.065,1.268l0.286,1.632l5.231-0.927C15.703,79.107,15.646,78.919,15.614,78.729z M10.73,79
			c-0.082-0.469-0.244-1.029,0.369-1.266c0.154-0.059,0.267-0.086,0.374-0.104c0.786-0.141,1.237,0.19,1.302,1.009L10.73,79z"/>
		<path fill="#FFFFFF" d="M14.885,74.939c-0.015-0.123-0.037-0.246-0.044-0.371c-0.007-0.127,0.003-0.241,0.004-0.364
			c-0.542-0.121-1.031-0.289-1.629-0.461l-0.096-1.81c0.507-0.238,1.025-0.427,1.588-0.638c-0.027-0.226-0.063-0.44-0.073-0.665
			c-0.013-0.225,0-0.443,0.003-0.67l-5.263,2.45c0.022,0.099,0.035,0.192,0.04,0.294c0.004,0.104,0.002,0.193-0.009,0.297
			L14.885,74.939z M12.66,72.139l0.075,1.42l-1.841-0.635L12.66,72.139z"/>
		<path fill="#FFFFFF" d="M14.605,66.574c0.015-0.193,0.05-0.386,0.079-0.579l-2.48-0.174l0.006-0.053
			c0.305-0.15,0.674-0.343,0.891-0.445l1.687-0.81c0-0.232-0.007-0.468,0.008-0.7c0.019-0.242,0.056-0.471,0.089-0.704l-0.501,0.27
			c-0.751,0.415-1.494,0.845-2.265,1.219c-0.104-0.732-0.548-1.254-1.307-1.307c-0.525-0.038-0.889,0.17-1.151,0.596
			c-0.193,0.314-0.216,0.882-0.241,1.246l-0.116,1.652l5.299,0.372C14.602,66.964,14.593,66.768,14.605,66.574z M11.873,65.797
			l-2.071-0.146c0.034-0.472,0.012-1.059,0.663-1.138c0.165-0.021,0.281-0.02,0.389-0.012
			C11.649,64.558,12.007,64.989,11.873,65.797z"/>
		<path fill="#FFFFFF" d="M18.837,49.475c0.057-0.11,0.124-0.207,0.187-0.315c-0.409-0.376-0.749-0.767-1.181-1.215l0.818-1.614
			c0.557,0.048,1.1,0.144,1.692,0.247c0.089-0.209,0.166-0.413,0.269-0.615c0.101-0.2,0.22-0.385,0.337-0.579l-5.776-0.52
			c-0.032,0.096-0.066,0.184-0.113,0.273c-0.046,0.089-0.095,0.17-0.154,0.252l3.777,4.429
			C18.739,49.705,18.783,49.586,18.837,49.475z M16.239,46.069l1.92,0.204l-0.644,1.269L16.239,46.069z"/>
		<path fill="#FFFFFF" d="M21.771,44.135c0.116-0.156,0.25-0.297,0.38-0.443l-1.986-1.503l0.033-0.044
			c0.337,0.042,0.752,0.082,0.99,0.118l1.854,0.242c0.127-0.195,0.249-0.396,0.389-0.583c0.144-0.193,0.303-0.365,0.454-0.542
			l-0.564-0.047c-0.854-0.062-1.713-0.108-2.562-0.218c0.309-0.669,0.219-1.35-0.387-1.809c-0.421-0.319-0.838-0.343-1.289-0.129
			c-0.332,0.158-0.661,0.621-0.879,0.913l-0.993,1.323l4.243,3.209C21.556,44.459,21.654,44.291,21.771,44.135z M18.242,40.735
			c0.284-0.379,0.585-0.882,1.172-0.593c0.148,0.072,0.247,0.138,0.332,0.203c0.637,0.482,0.704,1.039,0.153,1.645L18.242,40.735z"
			/>
		<path fill="#FFFFFF" d="M23.988,40.889c0.083-0.092,0.172-0.168,0.26-0.255c-0.298-0.47-0.526-0.936-0.829-1.483l1.208-1.345
			c0.525,0.192,1.024,0.425,1.57,0.677c0.14-0.178,0.267-0.354,0.417-0.523c0.149-0.167,0.313-0.313,0.474-0.47l-5.446-2.004
			c-0.055,0.086-0.111,0.16-0.18,0.235c-0.067,0.075-0.134,0.141-0.214,0.205l2.507,5.257
			C23.833,41.084,23.905,40.982,23.988,40.889z M22.354,36.924l1.803,0.697l-0.949,1.058L22.354,36.924z"/>
		<path fill="#FFFFFF" d="M34.015,31.678c1.555-1.092,1.769-2.819,0.896-4.057c-0.695-0.983-2.121-1.889-3.928-0.618
			c-1.58,1.112-1.785,2.784-0.9,4.051C31.091,32.5,32.613,32.663,34.015,31.678z M31.212,27.413c0.951-0.67,1.989,0.006,2.563,0.826
			c0.737,1.058,0.984,2.347,0.007,3.032c-0.953,0.669-1.939,0.054-2.517-0.773C30.271,29.072,30.33,28.032,31.212,27.413z"/>
		<path fill="#FFFFFF" d="M103.957,68.797c0-24.425-19.72-44.226-44.044-44.226c-24.323,0-44.043,19.8-44.043,44.226
			s19.72,44.225,44.043,44.225C84.237,113.021,103.957,93.223,103.957,68.797z M59.913,111.928
			c-23.723,0-42.954-19.311-42.954-43.131c0-23.82,19.231-43.131,42.954-43.131c23.724,0,42.953,19.311,42.953,43.131
			C102.866,92.617,83.636,111.928,59.913,111.928z"/>
		<path fill="#FFFFFF" d="M64.302,39.522c1.855-0.469,3.316-1.279,4.023-2.291c0.035-0.05,0.049-0.101,0.048-0.146l0.354-0.242
			c0.218-0.148,0.275-0.449,0.127-0.67l-0.203-0.305c0.01-0.023,0.015-0.048,0.019-0.075l0.087-0.771
			c1.142-1.517,2.778-2.604,4.303-3.698l-0.223-0.417c0,0-0.765,0.296-1.312,0.437c-0.298,0.076-0.609,0.118-0.917,0.119
			c-0.062-0.372-0.211-0.796-0.552-1.003c-0.935-0.563-2.405-0.199-2.123,1.071l0.054,0.241c0,0,0.307-0.054,0.452-0.041
			c0.08,0.005,0.185,0.011,0.262,0.037c0.265,0.215-0.342,1.304-1.041,1.261c-0.859-0.052-1.523-0.718-1.774-1.515
			c0.384-0.253,0.64-0.691,0.64-1.189c0-0.784-0.635-1.42-1.416-1.42c-0.782,0-1.414,0.637-1.414,1.42
			c0,0.415,0.174,0.787,0.454,1.046c-0.013,0.029-0.038,0.086-0.073,0.155c-0.245,0.475-0.666,0.993-1.25,1.01
			c-1.535,0.04-1.452-2.271,0.003-2.211c0.229,0.011,0.593,0.196,0.593,0.196l-0.09-0.471c0,0-0.017-0.11-0.068-0.274
			c-0.244-0.776-0.815-1.368-1.693-1.39c0,0-0.362-1.388-1.006-2.152c-0.461,0.523-1.026,2.152-1.026,2.152
			c-0.879,0.021-1.45,0.613-1.693,1.39c-0.051,0.165-0.067,0.274-0.067,0.274l-0.09,0.47c0,0,0.364-0.185,0.592-0.196
			c1.455-0.06,1.538,2.251,0.003,2.211c-0.586-0.016-1.008-0.535-1.25-1.01c-0.036-0.069-0.061-0.126-0.076-0.155
			c0.281-0.26,0.457-0.632,0.457-1.046c0-0.784-0.635-1.42-1.416-1.42c-0.782,0-1.415,0.637-1.415,1.42
			c0,0.498,0.253,0.936,0.636,1.189c-0.25,0.796-0.912,1.462-1.773,1.515c-0.698,0.043-1.308-1.046-1.041-1.261
			c0.076-0.026,0.182-0.031,0.261-0.037c0.145-0.013,0.443,0.062,0.443,0.062l0.064-0.262c0.281-1.27-1.188-1.634-2.123-1.071
			c-0.342,0.206-0.489,0.63-0.551,1.003c-0.31-0.001-0.619-0.042-0.917-0.119c-0.546-0.141-1.313-0.437-1.313-0.437l-0.224,0.417
			c1.522,1.093,3.161,2.181,4.305,3.698l0.078,0.703c-0.036,0.032-0.066,0.074-0.09,0.121l-0.234,0.442
			c-0.125,0.235-0.036,0.527,0.199,0.652l0.469,0.25c0.005,0.039,0.021,0.077,0.049,0.118c0.723,0.979,2.161,1.763,3.975,2.219
			l-12.74,12.789l16.493,16.562l16.497-16.559L64.302,39.522z M48.476,55.74l-3.41-3.423l3.41-3.423V55.74z M55.264,62.557
			l-3.281-3.294V45.371l3.281-3.294V62.557z M67.492,35.895c-0.217,0.148-0.276,0.45-0.12,0.684
			c-0.86-0.365-1.825-0.674-2.866-0.903l0.376-0.219c0.228-0.132,0.305-0.422,0.173-0.65l-0.092-0.162
			c1.087,0.247,2.072,0.583,2.915,0.987L67.492,35.895z M52.815,34.905l-0.043-0.112c-0.866-1.203-2.261-2.18-3.432-3.057
			c0.326,0.078,0.612,0.158,1.016,0.2c0.391,0.041,0.443,0.019,0.594,0.014c0-0.085,0-0.174-0.002-0.242
			c0.002-0.041,0.055-0.664,0.35-0.84c0.425-0.257,1.435-0.348,1.433,0.383l-0.099,0.008c-0.087,0.005-0.177,0.017-0.257,0.032
			c-1.086,0.223-0.202,2.292,1.104,2.211c0.999-0.061,1.657-0.658,2.063-1.529c0.125-0.266,0.197-0.738,0.197-0.738
			c-0.393-0.116-0.679-0.479-0.679-0.911c0-0.521,0.422-0.944,0.941-0.944s0.941,0.422,0.941,0.944c0,0.341-0.179,0.639-0.446,0.805
			l-0.121,0.085c0,0,0.099,0.218,0.129,0.299c0.272,0.72,0.947,1.477,1.764,1.495c2.14,0.054,2.063-3.089,0.054-3.175
			c0.139-0.388,0.499-1.02,1.357-0.971l0.16,0.02c0,0,0.391-1.434,0.748-1.854c0.397,0.664,0.679,1.854,0.679,1.854l0.16-0.02
			c0.859-0.049,1.216,0.583,1.357,0.971c-2.01,0.087-2.085,3.231,0.054,3.175c0.817-0.02,1.491-0.775,1.765-1.495
			c0.03-0.081,0.129-0.299,0.129-0.299L64.61,31.13c-0.266-0.167-0.446-0.463-0.446-0.805c0-0.521,0.421-0.944,0.941-0.944
			c0.521,0,0.942,0.422,0.942,0.944c0,0.432-0.287,0.795-0.681,0.911c0,0,0.071,0.472,0.198,0.738
			c0.407,0.871,1.063,1.468,2.062,1.529c1.308,0.081,2.191-1.989,1.104-2.211c-0.079-0.017-0.17-0.027-0.257-0.032l-0.098-0.008
			c-0.003-0.731,1.005-0.641,1.431-0.383c0.296,0.176,0.348,0.8,0.351,0.84l0.02,0.195c0.045,0.013,0.119,0.02,0.162,0.025
			c0-0.001,0.216,0.014,0.409,0.007c0.215-0.007,0.508-0.037,0.832-0.116c-1.169,0.876-2.383,1.771-3.249,2.973l-0.043,0.112
			l-0.043,0.378c-1.976-0.986-4.7-1.59-7.695-1.59c-2.998,0-5.722,0.604-7.697,1.59L52.815,34.905z M61.111,34.264l-0.106-0.091
			c0.97,0.021,1.905,0.105,2.788,0.246l-0.069,0.04c-0.227,0.132-0.305,0.423-0.173,0.65l0.244,0.424
			c-0.918-0.163-1.889-0.26-2.891-0.278l0.267-0.321C61.337,34.733,61.312,34.433,61.111,34.264z M57.49,34.492l-0.136-0.079
			c0.81-0.128,1.662-0.208,2.545-0.234l-0.162,0.195c-0.169,0.201-0.143,0.502,0.058,0.668l0.256,0.218
			c-0.902,0.027-1.776,0.119-2.608,0.266l0.221-0.382C57.794,34.915,57.717,34.625,57.49,34.492z M53.088,35.7
			c0.911-0.452,1.994-0.822,3.196-1.086l-0.129,0.227c-0.13,0.227-0.054,0.519,0.174,0.65l0.328,0.19
			c-1.132,0.25-2.173,0.597-3.086,1.005l0.075-0.142c0.125-0.235,0.036-0.526-0.198-0.651L53.088,35.7z M57.197,39.126
			c-1.694-0.385-3.035-1.05-3.774-1.844c0.144-0.07,0.291-0.137,0.445-0.203c0.96,0.677,2.322,1.194,3.897,1.477L57.197,39.126z
			 M62.338,66.08l-1.784,1.79l-1.783-1.79V38.555l1.783-1.789l1.784,1.789V66.08z M60.552,35.757l-2.369,2.379
			c-1.533-0.237-2.842-0.694-3.781-1.28c1.73-0.67,3.869-1.123,6.191-1.123c2.326,0,4.466,0.454,6.198,1.125
			c-0.957,0.595-2.296,1.056-3.858,1.289L60.552,35.757z M63.353,38.571c1.606-0.281,2.996-0.802,3.975-1.488
			c0.125,0.054,0.25,0.112,0.372,0.169c-0.738,0.806-2.086,1.481-3.794,1.872L63.353,38.571z M69.127,59.263l-3.281,3.294v-20.48
			l3.281,3.294V59.263z M72.633,48.894l3.409,3.423l-3.409,3.423V48.894z"/>
		<rect x="79.786" y="79.971" fill="#FFFFFF" width="0.233" height="1.055"/>
		<rect x="77.201" y="79.971" fill="#FFFFFF" width="0.232" height="1.055"/>
		<rect x="78.435" y="78.093" fill="#FFFFFF" width="0.321" height="1.462"/>
		<rect x="74.104" y="73.027" fill="#FFFFFF" width="0.233" height="1.056"/>
		<rect x="71.515" y="73.027" fill="#FFFFFF" width="0.233" height="1.056"/>
		<path fill="#FFFFFF" d="M94.605,62.862l-0.508-0.043c-1.479-0.129-4.022-0.513-3.975,1.764c1.147-0.336,1.543,0.796,0.236,0.796
			c-0.589,0-0.677-0.89-0.687-1.311c0.509-0.481,0.65-1.471-0.336-1.471c-0.248,0-0.502,0.188-0.774,0.354
			c-0.077-0.389-0.291-0.626-0.689-0.804c0.028-0.571-0.06-1.155-0.55-1.535c-0.544,0.252-0.923,0.747-1.006,1.349
			c-0.562,0.041-1.06,0.295-1.058,1.047v0.19h0.189c1.938-0.002,0.067,2.816-0.575-0.064c1.178-0.577-0.265-2.311-0.97-1.319
			c-0.36,0.506-0.193,0.974,0.224,1.282c-0.08,1.709-2.304,1.269-2.304,0.226c0-1.531,0.833-0.188,1.091,0.311l0.171-0.313
			c0.464-0.844,0.668-3.055-0.945-2.405c0.008-0.508-0.299-1.585-0.857-1.826c-0.599,0.373-0.76,1.101-0.821,1.741
			c-0.757-0.334-1.312,0.327-1.19,1.025l0.042,0.312c0.099,0.661,0.224,1.187,0.397,1.83l0.195-0.623
			c0.202-0.654,0.827-1.192,0.901,0.019c0.026,0.44-1.588,1.946-2.25-0.291c1.085-0.613-0.403-2.369-1.161-1.137
			c-0.137,0.221-0.148,0.448-0.075,0.649c-0.181-0.382-0.567-0.656-1.019-0.673c-0.099-0.507-0.466-1.163-1.015-1.307
			c-0.524,0.272-0.551,1.053-0.546,1.572l-0.487,0.278c-0.114,0.243-0.19,0.437-0.247,0.628c-0.101-0.292-0.346-0.526-0.716-0.526
			c-0.961,0-1.104,1.305-0.282,1.562c-0.026,0.355-0.109,0.719-0.263,1.018c-0.446,0.864-2.105-0.893-0.771-0.762
			c0.128,0,0.173,0.094,0.248,0.177c0.168,0.192,0.626,0.283,0.423-0.161c-0.034-0.072-0.063-0.135-0.093-0.21l-0.057-0.149
			l-0.073-0.187c-0.609-1.537-2.614-1.212-3.895-1.008l-0.033,0.005l0.006,0.037l-0.169,0.27c1.329,0.849,2.476,2.06,2.367,3.759
			L70.6,66.965c-0.329,0.1-0.256,0.529,0.004,0.598c-0.033,0.02-0.063,0.043-0.091,0.072l-0.377,0.379
			c-0.199,0.199-0.199,0.526,0,0.727l0.377,0.38c0.068,0.069,0.15,0.112,0.237,0.135l-0.396,0.122l-0.445-0.002
			c0,0-0.015,11.715-0.015,18.938c0,3.313,0.342,4.475,2.186,6.605c1.982,2.287,5.099,4.003,5.897,4.37
			c0.745,0.345,2.407,1.077,3.264,1.077c1.971,0,6.084-2.821,7.49-4.063c1.272-1.126,2.436-2.573,3.113-3.827l0.028-0.049
			c0.16-0.347,0.269-0.665,0.417-1.093c0.081-0.233,0.131-0.487,0.162-0.724h0.011l-0.023-21.234h-0.317l-0.284-0.122
			c0.091-0.021,0.18-0.067,0.253-0.14l0.376-0.377c0.199-0.2,0.199-0.527,0-0.729L92.09,67.63c-0.037-0.037-0.078-0.066-0.122-0.09
			c0.242-0.079,0.313-0.475,0.012-0.586C91.493,65.323,93.57,63.612,94.605,62.862z M88.319,63.634
			c0.229,0.056,0.426,0.232,0.461,0.445c0.046,0.276-0.475,0.692-0.847,0.692c-0.399,0-1.387-1.116,0.079-1.229v0.019l0.116,0.03
			L88.319,63.634z M84.21,62.037c0.291-0.41,1.282,0.494,0.272,0.839C84.16,62.668,83.93,62.432,84.21,62.037z M77.716,62.164
			c0.408-0.663,1.324,0.321,0.416,0.671C77.87,62.733,77.501,62.514,77.716,62.164z M77.233,63.211l0.208,0.001l-0.018-0.208
			c-0.01-0.112-0.036-0.22-0.075-0.322c0.081,0.165,0.223,0.305,0.399,0.403c-0.036,1.611-0.804,1.46-1.197,1.144
			C76.089,63.856,75.928,63.205,77.233,63.211z M73.963,63.845c0.471-0.269,1.33-0.646,1.332,0.287
			c0.002,0.921-1.279,0.779-1.443-0.128C73.894,63.956,73.933,63.902,73.963,63.845z M70.788,91.125
			c-0.216-0.893-0.272-1.837-0.272-2.926l0.002-4.545h0.271L70.788,91.125L70.788,91.125z M72.015,93.729
			c-0.221-0.303-0.411-0.604-0.573-0.9v-9.174h0.573V93.729z M73.244,95.136c-0.2-0.196-0.394-0.397-0.574-0.604V83.654h0.574
			V95.136z M74.492,96.251c-0.198-0.162-0.397-0.329-0.593-0.505V83.654h0.593V96.251z M75.654,97.137
			c-0.166-0.121-0.336-0.244-0.507-0.371V83.654h0.476l0.031,0.085V97.137z M75.739,83.371h-5.221l0.003-6.788h5.219v-0.181v-0.034
			v-6.374h5.458v6.607h-5.459V83.371z M80.254,67.234l0.377,0.377c0.016,0.017,0.033,0.031,0.049,0.044
			c-1.331,0.016-2.711,0.124-4.086,0.311l0.347-0.347c0.201-0.201,0.201-0.528,0-0.73l-0.377-0.378
			c-0.081-0.078-0.179-0.128-0.284-0.144c1.528-0.214,3.09-0.346,4.59-0.377c-0.088,0.021-0.172,0.068-0.241,0.136l-0.376,0.378
			C80.053,66.706,80.053,67.032,80.254,67.234z M81.018,68.271c1.76,0,3.976,0.021,5.468,0.27c1.195,0.199,2.585,0.455,3.851,0.836
			H72.631C75.361,68.686,78.238,68.271,81.018,68.271z M85.99,67.581l0.304,0.308c-1.419-0.201-3.36-0.23-4.986-0.233
			c0.015-0.012,0.034-0.027,0.049-0.042l0.376-0.377c0.2-0.203,0.2-0.527,0-0.729l-0.376-0.379
			c-0.074-0.074-0.165-0.122-0.259-0.139c0.169-0.002,0.336-0.003,0.504-0.003c1.875,0,3.557,0.124,5.085,0.342
			c-0.117,0.01-0.23,0.059-0.321,0.148l-0.375,0.379C85.789,67.054,85.789,67.38,85.99,67.581z M89.456,76.611l2.375-5.936
			l0.013,11.901L89.456,76.611z M91.843,83.027v0.344h-0.3v-1.092L91.843,83.027z M90.942,80.773v2.598h-0.634v-4.18L90.942,80.773z
			 M86.744,82.936l0.012-12.648l2.52,6.324L86.744,82.936z M88.536,78.91v4.46h-0.632v-2.878L88.536,78.91z M87.302,81.995v1.376
			h-0.55L87.302,81.995z M86.811,69.993h0.493v1.228L86.811,69.993z M87.904,72.727v-2.732h0.634v4.316L87.904,72.727z
			 M89.148,75.84v-5.847h0.549v5.563l-0.333,0.828L89.148,75.84z M89.148,77.382l0.217-0.544l0.333,0.829v5.704h-0.549
			L89.148,77.382L89.148,77.382z M90.309,74.032v-4.038h0.634v2.455L90.309,74.032z M91.544,70.945v-0.952h0.287v0.233
			L91.544,70.945z M91.371,67.629l-0.375,0.378c-0.201,0.201-0.201,0.527,0,0.729l0.303,0.304c-1.335-0.479-2.883-0.794-4.264-1.033
			c0.02-0.015,0.038-0.031,0.057-0.05l0.376-0.377c0.201-0.201,0.201-0.527,0-0.728l-0.376-0.379
			c-0.051-0.051-0.111-0.089-0.175-0.115c1.763,0.265,3.318,0.656,4.724,1.128C91.542,67.505,91.447,67.553,91.371,67.629z
			 M83.934,87.203c-0.233,0-0.431,0.199-0.431,0.199v2.486h-1.709v-0.66h0.443v-4.011H82.9V86.2h0.322v-2.056h1.303V86.2h0.354
			v-0.982h0.644v4.011h0.429v0.66h-1.697v-2.486C84.254,87.402,84.164,87.203,83.934,87.203z M82.439,83.371V69.993h0.585V83.37
			L82.439,83.371L82.439,83.371z M83.693,83.371V69.993h0.585V83.37L83.693,83.371L83.693,83.371z M84.946,83.371V69.993h0.585
			V83.37L84.946,83.371L84.946,83.371z M81.77,69.993V83.37h-0.41V69.993H81.77z M75.461,67.621l0.377,0.378
			c0.026,0.024,0.054,0.049,0.083,0.067c-1.596,0.248-3.178,0.602-4.662,1.037l0.36-0.362c0.2-0.199,0.2-0.526,0-0.726l-0.378-0.379
			c-0.074-0.075-0.165-0.121-0.259-0.14c1.511-0.452,3.227-0.823,5-1.084c-0.051,0.025-0.1,0.059-0.144,0.101l-0.377,0.378
			C75.262,67.091,75.262,67.418,75.461,67.621z M71.285,75.41v-4.014h0.661v0.984h0.322v-2.058h1.301v2.058h0.354v-0.984h0.644
			v4.014h0.43v0.66h-1.696v-2.49c0,0-0.089-0.195-0.323-0.195c-0.232,0-0.429,0.195-0.429,0.195v2.49H70.84v-0.66H71.285z
			 M78.588,90.626l2.542-6.385v6.389c-0.039,1.034-0.553,2.132-1.284,3.151L78.588,90.626z M79.725,93.945
			c-0.098,0.134-0.202,0.267-0.308,0.396v-1.167L79.725,93.945z M76.525,83.01v-0.658h0.443v-4.013h0.661v0.981h0.323v-2.055h1.304
			v2.055h0.351v-0.981h0.646v4.013h0.429v0.658h-1.697v-2.488c0,0-0.089-0.196-0.322-0.196c-0.232,0-0.429,0.196-0.429,0.196v2.488
			H76.525z M77.594,83.654v4.494l-0.623-1.563c-0.005-0.547,0.001-2.6,0.002-2.932H77.594L77.594,83.654z M81.034,83.654v0.447
			l-0.386,0.957c0.001-0.357,0.013-1.199,0.016-1.406h0.371L81.034,83.654L81.034,83.654z M80.032,83.654v2.935l-0.605,1.505
			c-0.006-0.742,0.004-4.014,0.004-4.438h0.601V83.654z M78.202,83.654h0.609v5.968L78.497,90.4l-0.295-0.74V83.654z M78.77,91.55
			v3.528c-0.184,0.195-0.374,0.385-0.565,0.568v-4.074l0.289-0.717L78.77,91.55z M76.356,83.654v1.39l-0.534-1.337v-0.053H76.356z
			 M75.822,84.159l2.582,6.473l-2.582,6.408V84.159z M77.578,93.13v3.079c-0.197,0.164-0.394,0.324-0.585,0.469v-2.096L77.578,93.13
			z M75.895,97.307l0.471-1.17v0.987c-0.131,0.088-0.259,0.169-0.383,0.241L75.895,97.307z M81.247,99.747
			c-0.691,0-2.206-0.649-3.009-1.021c-0.337-0.156-1.144-0.606-2.103-1.258c2.067-1.234,4.582-3.835,5.083-6.225
			c0.374,1.705,1.882,3.678,3.44,5.091c0.055,0.091,0.156,0.188,0.257,0.229c0.408,0.354,0.816,0.668,1.201,0.922
			C84.448,98.605,82.384,99.747,81.247,99.747z M86.545,97.198l-0.274,0.188c-0.343-0.226-0.721-0.516-1.115-0.848
			c0.065-0.036,0.138-0.081,0.22-0.143c0.395-0.287,0.089-0.551,0.089-1.162c0-0.61,0.214-1.864,0.304-2.17
			c0.178,0.035,0.304-0.186,0.304-0.324c0-0.137-0.106-0.301-0.106-0.643c0-0.343,0.071-0.357,0.071-0.357s-0.631,0-0.806,1.271
			c-0.173,1.271-0.586,0.885-0.496,0.184c0.089-0.701,0.572-1.829,0.339-2.081c-0.232-0.25-0.663,0.182-0.876-0.124
			c-0.018,0.462-0.18,0.48-0.303,0.552c-0.126,0.072-0.479,0.144-0.461,0.342c0.017,0.198,0.089,0.056,0.089,0.216
			s-0.161,0.146-0.161,0.287c0,0.145,0.197,0.336,0.197,0.518c0,0.179-0.233,0.184-0.466-0.213
			c-0.233-0.396-0.676-1.076-0.837-0.916c-0.16,0.164,0.076,0.47,0.125,0.596c0.047,0.115,0.315,0.77-0.052,0.988
			c-0.589-0.916-0.99-1.866-1.027-2.729h5.243L86.545,97.198L86.545,97.198z M86.578,83.371h-0.376V69.993h0.376V83.371z
			 M90.88,92.895c-0.351,0.535-0.779,1.104-1.266,1.654v-0.324c0,0-0.09-0.197-0.322-0.197c-0.233,0-0.43,0.197-0.43,0.197v1.119
			c-0.172,0.17-0.35,0.333-0.532,0.494c-0.261,0.232-0.645,0.535-1.104,0.875h-0.075v-0.661h0.444V92.04h0.661v0.985h0.324v-2.06
			h1.3v2.06h0.354V92.04h0.645L90.88,92.895L90.88,92.895z M91.85,90.609h-5.263v-0.305v-0.191l0.002,0.191v-6.682l5.254-0.001
			L91.85,90.609z M91.563,66.81c-2.678-0.872-5.884-1.492-9.972-1.492c-3.494,0-7.39,0.598-10.509,1.502
			c0.039-1.533-0.874-2.788-2.07-3.647c1.078-0.164,2.607-0.296,3.063,0.856c-0.025-0.004-0.052-0.005-0.082-0.005
			c-2.1-0.2,0.135,3.166,1.088,1.317c0.248-0.481,0.303-0.988,0.32-1.517c-0.676-0.075-0.752-0.857-0.112-0.857
			c0.54,0,0.409,0.683,0.159,0.877c0.166,1.681,2.229,1.667,2.225,0.286c-0.003-0.932-0.713-1.094-1.315-0.912
			c0.048-0.154,0.115-0.309,0.186-0.464l0.58-0.332c-0.012-0.341-0.019-1.109,0.214-1.373c0.412,0.226,0.599,0.868,0.603,1.299
			c0.437-0.054,0.879-0.006,1.062,0.485c-1.52,0.092-1.316,1.185-0.687,1.691c0.716,0.577,1.807,0.409,1.815-1.538
			c0.862,3.084,3.101,1.187,3.052,0.376c-0.063-1.032-0.805-1.56-1.378-0.687l-0.091-0.611c-0.034-0.231-0.08-0.505-0.08-0.505
			c0.043-0.283,0.368-0.693,0.868-0.256l0.298,0.259c0.023-0.578,0.046-1.598,0.495-2.021c0.342,0.421,0.493,1.378,0.465,1.91
			l0.273-0.104c1.33-0.737,1.11,0.776,0.856,1.473c-0.633-0.889-1.45-0.824-1.45,0.501c0,1.521,2.89,1.975,3.058-0.13
			c0.931,3.816,3.651-0.156,1.153-0.367c0.066-0.362,0.357-0.489,0.84-0.487h0.189v-0.192c0-0.391,0.25-0.858,0.584-1.077
			c0.265,0.33,0.24,0.942,0.202,1.33c0.409,0.153,0.688,0.253,0.737,0.737l-0.071,0.023c-1.633,0.141-1.69,1.991-0.201,1.991
			c0.954,0,1.786-1.242,0.711-1.798c0.155-0.086,0.539-0.373,0.691-0.373c0.697,0,0.221,0.7-0.043,0.914v0.09
			c-0.001,0.672,0.166,1.776,1.066,1.776c1.697,0,1.338-1.767,0.153-1.662c0.185-1.188,2.201-1.023,3.075-0.944
			C92.656,63.935,91.314,65.357,91.563,66.81z"/>
		<rect x="72.749" y="71.15" fill="#FFFFFF" width="0.322" height="1.465"/>
		<rect x="85.056" y="86.85" fill="#FFFFFF" width="0.232" height="1.055"/>
		<rect x="82.469" y="86.85" fill="#FFFFFF" width="0.234" height="1.055"/>
		<rect x="83.702" y="84.973" fill="#FFFFFF" width="0.322" height="1.465"/>
		<path fill="#FFFFFF" d="M46.143,68.969c0.252-0.507,0.693-0.816,1.186-1.042c-0.192-0.382-0.371-0.692-0.841-0.804
			c-0.073-0.018-0.153-0.025-0.238-0.024c0.269-0.674,0.175-1.346,0.133-2.035c0.24,0.083,0.366-0.275,0.128-0.362
			c-0.002,0-0.06-0.021-0.169-0.056l-0.001-0.052c-0.01-0.319-0.007-0.596-0.007-0.619c0-0.154,0.291-0.584,0.368-0.675
			c0.223-0.253,0.892-0.687,1.2-0.839l-0.248-0.201c0,0-0.052-0.015-0.229-0.103c-0.569-0.277-1.082-0.48-1.624,0.021l-0.021-0.032
			c-0.091-0.137-0.192-0.233-0.299-0.293l0.045-0.013c-0.202-0.726-0.624-1.541-1.177-2.065c-0.025-0.262-0.101-1.128-0.07-1.19
			c0.156-0.314,0.569-0.586,0.888-0.722c0.134-0.056,0.403-0.131,0.403-0.131c-0.107-0.457-0.32-0.789-0.871-0.789
			c-0.313,0-0.553,0.118-0.71,0.234c-0.398-0.995-0.802-0.738-1.374-0.455c0-0.287-0.182-0.531-0.436-0.619
			c0.002-0.033-0.002-0.07-0.02-0.109c-0.352-0.808-1.098-1.413-2.001-1.597c0.072-0.113,0.114-0.247,0.114-0.391
			c0-0.324-0.213-0.6-0.506-0.693v-0.396h0.601c0.286,0,0.286-0.428,0-0.428h-0.601v-0.708c0-0.285-0.427-0.285-0.427,0v0.708
			h-0.601c-0.285,0-0.285,0.428,0,0.428h0.601v0.396c-0.295,0.092-0.51,0.368-0.51,0.693c0,0.149,0.045,0.287,0.121,0.402
			c-0.913,0.201-1.659,0.834-1.993,1.686c-0.272,0.077-0.473,0.333-0.473,0.643c-0.569-0.296-0.974-0.554-1.372,0.442
			c-0.156-0.117-0.396-0.234-0.709-0.234c-0.357,0-0.651,0.184-0.793,0.503c-0.026,0.062-0.079,0.285-0.079,0.285
			c0.463,0.127,1.065,0.401,1.29,0.854c0.033,0.063-0.044,0.928-0.068,1.19c-0.555,0.525-0.978,1.339-1.165,2.071
			c-0.084,0.06-0.166,0.143-0.238,0.254l-0.021,0.033c-0.542-0.501-1.053-0.299-1.622-0.022c-0.178,0.086-0.229,0.104-0.229,0.104
			l-0.249,0.2c0.309,0.153,0.978,0.585,1.2,0.839c0.078,0.09,0.368,0.519,0.368,0.675c0,0.022,0.001,0.298-0.007,0.617l-0.002,0.071
			c-0.096,0.031-0.147,0.049-0.147,0.049c-0.238,0.083-0.115,0.439,0.121,0.361c-0.056,0.707-0.149,1.389,0.141,2.076
			c-0.098-0.006-0.188,0.001-0.273,0.021c-0.47,0.112-0.65,0.421-0.841,0.804c0.492,0.224,0.933,0.535,1.187,1.042
			c0.115,0.232,0.364,0.86,0.446,1.069h-5.641v19.207c0.004,0.916,0.046,1.933,0.299,2.813c1.098,3.826,4.89,6.478,8.332,8.03
			c1.354,0.613,2.348,0.911,2.348,0.911l0.396,0.078l0.379-0.078c2.317-0.667,5.088-2.181,6.89-3.736
			c2.313-1.996,3.75-4.012,3.947-7.002c0.038-0.568,0.041-1.018,0.041-1.018V70.039h-4.708
			C45.779,69.83,46.026,69.202,46.143,68.969z M30.027,91.439h-1.388l-0.061-0.334c0.142-0.162,0.319-0.355,0.319-0.355
			s-0.272-0.275-0.322-0.363c-0.052-0.085-0.094-0.229-0.085-0.326c0.008-0.098-0.016-0.377,0.697-0.375
			c0.714,0.006,0.744,0.241,0.741,0.406c-0.008,0.321-0.383,0.658-0.383,0.658l0.48,0.583v0.106H30.027z M30.027,83.333h-1.613
			c0,0-0.008-0.05,0-0.11c0.007-0.057,0.484-0.58,0.484-0.58s-0.272-0.274-0.322-0.36c-0.051-0.085-0.094-0.228-0.085-0.324
			c0.008-0.099-0.016-0.379,0.697-0.374c0.714,0.003,0.744,0.24,0.741,0.402c-0.008,0.322-0.383,0.658-0.383,0.658l0.481,0.586
			V83.333z M30.094,72.563h-1.615c0,0-0.008-0.054,0-0.11c0.008-0.06,0.485-0.579,0.485-0.579s-0.272-0.275-0.321-0.364
			c-0.05-0.083-0.094-0.229-0.086-0.325c0.007-0.098-0.016-0.377,0.697-0.373c0.715,0.006,0.746,0.241,0.743,0.404
			c-0.009,0.322-0.384,0.659-0.384,0.659l0.48,0.585L30.094,72.563L30.094,72.563z M42.337,57.263h0.427
			c0.257,0,0.358,0.197,0.365,0.477c0.013,0.483-0.709,0.299-0.9-0.426c0.038-0.018,0.074-0.037,0.107-0.061L42.337,57.263z
			 M41.963,56.445c0.149,0,0.271,0.123,0.271,0.273c0,0.149-0.122,0.272-0.271,0.272c-0.15,0-0.272-0.123-0.272-0.272
			C41.691,56.567,41.812,56.445,41.963,56.445z M39.548,53.706c0.163,0,0.296,0.132,0.296,0.297c0,0.164-0.132,0.296-0.296,0.296
			s-0.295-0.132-0.295-0.296C39.253,53.837,39.386,53.706,39.548,53.706z M39.576,54.763c0.966,0,1.792,0.555,2.162,1.34
			c-0.215,0.079-0.377,0.269-0.417,0.5c-0.193-0.399-0.483-0.624-1.049-0.666c-0.034-0.388-0.201-0.771-0.538-0.982
			c-0.072-0.046-0.186-0.083-0.186-0.083c-0.453,0.154-0.684,0.6-0.723,1.064c-0.566,0.043-0.857,0.268-1.049,0.667
			c-0.039-0.216-0.18-0.393-0.372-0.479C37.769,55.324,38.6,54.763,39.576,54.763z M41.466,57.141
			c-0.133,0.322-0.318,0.636-0.731,0.636c-0.532,0-0.555-0.282-0.555-0.386c0-0.075,0.067-0.276,0.245-0.36
			c0.251-0.114,0.719-0.001,1.011,0.072L41.466,57.141z M38.916,57.389c0,0.104-0.021,0.386-0.555,0.386
			c-0.415,0-0.598-0.312-0.732-0.635l0.032-0.04l0.243-0.06C38.216,56.966,38.916,56.887,38.916,57.389z M37.133,56.445
			c0.149,0,0.272,0.123,0.272,0.273c0,0.149-0.124,0.272-0.272,0.272c-0.149,0-0.271-0.123-0.271-0.272
			C36.862,56.567,36.984,56.445,37.133,56.445z M36.332,57.263l0.428-0.01c0.033,0.025,0.07,0.043,0.107,0.061
			c-0.193,0.725-0.915,0.909-0.901,0.426C35.975,57.459,36.074,57.263,36.332,57.263z M34.024,57.484
			c0.065-0.079,0.175-0.163,0.375-0.163c0.231,0,0.453,0.099,0.607,0.27c0.021,0.023,0.273,0.378,0.273,0.378
			c0.049-0.198,0.29-1.381,0.714-1.067l0.046,0.031c-0.353,0.142-0.446,0.536-0.453,0.795c-0.027,0.944,1.332,0.856,1.636-0.251
			l0.132-0.012c0.199,0.395,0.534,0.691,1.006,0.691c0.8,0,0.936-0.516,0.936-0.768c0-0.63-0.595-0.822-1.104-0.777
			c0.166-0.199,0.428-0.281,0.677-0.297c0.075-0.005,0.328,0.013,0.328,0.013c-0.002-0.375,0.002-0.81,0.348-1.041
			c0.346,0.231,0.352,0.666,0.349,1.041c0.358-0.026,0.75-0.023,1.007,0.283c-0.509-0.044-1.104,0.147-1.104,0.778
			c0,0.251,0.135,0.768,0.935,0.768c0.472,0,0.809-0.297,1.006-0.691l0.017-0.035l0.113,0.039c0.102,0.369,0.332,0.731,0.725,0.845
			c1.177,0.343,1.098-1.131,0.46-1.384l0.046-0.031c0.279-0.206,0.478,0.267,0.553,0.472c0.041,0.11,0.162,0.596,0.162,0.596
			c0.243-0.34,0.401-0.648,0.88-0.648c0.201,0,0.312,0.083,0.375,0.162c-0.214,0.087-0.438,0.212-0.619,0.354
			c-0.627,0.494-0.587,0.672-0.537,1.339c-1.306-0.423-3.072-0.605-4.367-0.605c-2.146,0-3.771,0.426-4.36,0.606
			c0.015-0.201,0.02-0.4,0.007-0.594C35.164,58.108,34.424,57.643,34.024,57.484z M34.84,60.226
			c0.125-0.139,0.272-0.268,0.272-0.268l0.041-0.372c1.284-0.446,3.087-0.633,4.396-0.633c1.324,0,2.443,0.166,3.232,0.331
			c0.606,0.127,1.014,0.254,1.168,0.306c0.019,0.205,0.035,0.368,0.035,0.368c0.517,0.447,0.908,1.144,1.121,1.802
			c-0.542,0.03-1.005,0.69-0.513,1.121c0.103,0.091,0.156,0.233,0.181,0.367l-0.006,0.035c-0.099,0.42-0.684,0.404-0.702-0.04
			l-0.003-0.216l-0.396-0.058c0,0-0.003,0.017-0.015,0.043c-0.057,0.143-0.154,0.232-0.325,0.204
			c-0.313-0.056-0.384-0.268-0.343-0.495c0.056-0.316,0.486-0.367,0.677-0.217c0.131,0.1,0.275,0.306,0.275,0.306
			c0.056-0.632,0.068-1.049-0.539-1.374l-0.078-0.041c0.033-0.33-0.045-0.847-0.334-1.078L42.9,60.253l-0.108,0.029
			c-0.35,0.117-0.6,0.576-0.682,0.899l-0.088,0.009c-0.681,0.098-0.815,0.524-0.978,1.138c0,0,0.21-0.184,0.367-0.231
			c0.23-0.075,0.618,0.129,0.561,0.445c-0.04,0.226-0.177,0.399-0.492,0.347c-0.17-0.03-0.229-0.15-0.234-0.302
			c-0.001-0.029,0-0.047,0-0.047l-0.253-0.058l-0.209,0.003c0,0-0.001,0.02-0.007,0.047c-0.03,0.149-0.112,0.256-0.282,0.256
			c-0.32,0-0.426-0.197-0.426-0.425c0-0.323,0.417-0.456,0.631-0.341c0.146,0.075,0.322,0.26,0.322,0.26
			c-0.055-0.631-0.115-1.045-0.768-1.26l-0.087-0.025c-0.025-0.333-0.191-0.828-0.516-1.004l-0.103-0.048l-0.094,0.048
			c-0.325,0.176-0.491,0.671-0.516,1.004l-0.085,0.025c-0.655,0.215-0.713,0.629-0.768,1.26c0,0,0.177-0.177,0.322-0.253
			c0.214-0.114,0.629,0.013,0.629,0.335c0,0.229-0.104,0.425-0.424,0.425c-0.171,0-0.251-0.106-0.283-0.256
			c-0.006-0.028-0.007-0.047-0.007-0.047l-0.223-0.004l-0.217,0.011c0,0,0.001,0.02,0,0.049c-0.004,0.152-0.065,0.272-0.234,0.301
			c-0.313,0.056-0.452-0.12-0.492-0.346c-0.055-0.318,0.331-0.52,0.563-0.444c0.157,0.049,0.367,0.231,0.367,0.231
			c-0.164-0.611-0.298-1.04-0.979-1.137l-0.087-0.01c-0.082-0.322-0.332-0.783-0.682-0.899l-0.108-0.029l-0.084,0.063
			c-0.29,0.23-0.368,0.747-0.336,1.081l-0.077,0.038c-0.607,0.325-0.594,0.743-0.538,1.374c0,0,0.144-0.206,0.274-0.305
			c0.19-0.15,0.621-0.1,0.677,0.218c0.039,0.227-0.03,0.438-0.345,0.493c-0.169,0.031-0.266-0.06-0.324-0.202
			c-0.01-0.027-0.016-0.044-0.016-0.044l-0.396,0.061L35.062,63.2c-0.019,0.441-0.603,0.457-0.702,0.041l-0.006-0.035
			c0.024-0.132,0.079-0.276,0.182-0.366c0.496-0.435,0.019-1.104-0.527-1.123C34.186,61.186,34.483,60.628,34.84,60.226z
			 M32.709,63.001c-0.184-0.21-0.467-0.405-0.688-0.541l-0.075-0.045c0.461-0.234,0.89-0.361,1.265,0.149l0.321-0.025
			c0.009-0.017,0.125-0.238,0.17-0.282c0.413-0.413,0.817,0.084,0.583,0.29c-0.143,0.124-0.218,0.288-0.259,0.406
			c-0.043,0.124-0.054,0.224-0.054,0.224v0.035c0.045,0.792,1.171,0.977,1.424,0.232c0.124,0.09,0.291,0.129,0.469,0.1
			c0.582-0.104,0.717-0.569,0.652-0.937c-0.09-0.51-0.501-0.658-0.927-0.555c0.143-0.28,0.372-0.339,0.654-0.437l-0.04-0.18
			c-0.045-0.251-0.036-0.555,0.107-0.777c0.211,0.161,0.323,0.442,0.365,0.694l0.024,0.183c0.297-0.005,0.532-0.028,0.763,0.184
			c-0.435,0.051-0.772,0.33-0.682,0.842c0.063,0.366,0.35,0.757,0.929,0.655c0.187-0.033,0.335-0.104,0.43-0.243
			c0.118,0.122,0.28,0.197,0.47,0.197c0.591,0,0.804-0.434,0.804-0.807c0-0.52-0.38-0.736-0.817-0.71
			c0.189-0.25,0.425-0.269,0.719-0.318l-0.007-0.184c0-0.254,0.061-0.552,0.241-0.747c0.179,0.195,0.24,0.493,0.24,0.747
			l-0.008,0.184c0.295,0.049,0.529,0.067,0.719,0.318c-0.438-0.026-0.818,0.19-0.818,0.71c0,0.372,0.214,0.807,0.803,0.807
			c0.188,0,0.35-0.074,0.467-0.192c0.083,0.159,0.271,0.254,0.456,0.288c0.58,0.101,0.866-0.288,0.93-0.655
			c0.089-0.511-0.248-0.791-0.682-0.842c0.231-0.213,0.465-0.19,0.762-0.186l0.024-0.183c0.044-0.252,0.156-0.534,0.366-0.694
			c0.144,0.224,0.152,0.525,0.107,0.778l-0.04,0.181c0.28,0.1,0.51,0.158,0.654,0.437c-0.426-0.101-0.838,0.045-0.928,0.558
			c-0.065,0.366,0.071,0.833,0.65,0.935c0.18,0.031,0.348-0.008,0.471-0.099c0.253,0.745,1.379,0.562,1.424-0.232l-0.001-0.035
			c0,0-0.011-0.097-0.054-0.223c-0.042-0.12-0.117-0.281-0.258-0.406c-0.234-0.206,0.17-0.706,0.583-0.292
			c0.044,0.044,0.161,0.266,0.169,0.282l0.322,0.026c0.376-0.511,0.804-0.383,1.265-0.149l-0.074,0.044
			c-0.223,0.136-0.504,0.331-0.688,0.543c-0.35,0.398-0.464,0.824-0.464,0.926c0,0.177-0.003,0.363-0.002,0.549
			c-1.056-0.311-3.496-0.919-6.403-0.919c-2.917,0-5.337,0.593-6.371,0.892c0-0.194-0.002-0.386-0.002-0.569
			C33.174,63.825,33.059,63.4,32.709,63.001z M44.249,67.958c-0.032,0.295-0.068,0.478-0.375,0.448
			c-0.438-0.041-0.891-0.557-0.935-1.009c0.287-0.112,0.49-0.393,0.49-0.72c0-0.425-0.345-0.77-0.768-0.77
			c-0.423,0-0.768,0.345-0.768,0.77c0,0.219,0.091,0.417,0.238,0.558c-0.006,0.024-0.024,0.092-0.064,0.182
			c-0.153,0.347-0.575,0.722-0.971,0.735c-0.344,0.009-0.775-0.259-0.768-0.555c0.015-0.616,0.862-0.659,1.289-0.525l0.299,0.093
			c-0.182-0.984-0.529-1.289-1.454-1.387c-0.007-0.229-0.038-0.466-0.146-0.674c-0.138-0.268-0.333-0.506-0.591-0.638
			c0,0-0.115-0.051-0.172-0.066c-0.061,0.014-0.172,0.066-0.172,0.066c-0.257,0.13-0.453,0.37-0.593,0.638
			c-0.107,0.208-0.135,0.446-0.145,0.674c-0.926,0.099-1.273,0.402-1.455,1.387l0.299-0.093c0.426-0.132,1.275-0.091,1.289,0.525
			c0.007,0.298-0.426,0.564-0.768,0.555c-0.396-0.014-0.818-0.387-0.972-0.735c-0.04-0.091-0.057-0.158-0.063-0.182
			c0.145-0.141,0.237-0.34,0.237-0.558c0-0.425-0.343-0.77-0.768-0.77c-0.424,0-0.768,0.345-0.768,0.77
			c0,0.327,0.203,0.607,0.491,0.72c-0.045,0.451-0.497,0.968-0.936,1.009c-0.306,0.027-0.342-0.153-0.375-0.448
			c-0.063-0.593,0.613-0.613,0.981-0.63l-0.215-0.289c-0.759-1.015-1.385-0.702-1.789,0.414c-0.145-0.109-0.317-0.2-0.494-0.263
			c-0.206-0.409-0.361-1.287-0.26-1.721c0.044-0.184,0.068-0.379,0.079-0.578c1.96-0.616,4.42-0.905,6.383-0.905
			c1.916,0,3.627,0.268,4.858,0.537c0.68,0.149,1.215,0.299,1.555,0.402c0.012,0.203,0.036,0.403,0.078,0.591
			c0.097,0.41-0.039,1.227-0.229,1.659c-0.193,0.062-0.38,0.158-0.538,0.277c-0.404-1.115-1.032-1.426-1.788-0.414l-0.216,0.289
			C43.636,67.345,44.312,67.366,44.249,67.958z M42.662,67.068c-0.215,0-0.388-0.175-0.388-0.39c0-0.216,0.173-0.388,0.388-0.388
			c0.215,0,0.388,0.174,0.388,0.388C43.051,66.894,42.877,67.068,42.662,67.068z M36.837,66.679c0,0.215-0.174,0.39-0.389,0.39
			c-0.215,0-0.389-0.175-0.389-0.39c0-0.216,0.174-0.388,0.389-0.388C36.662,66.291,36.837,66.462,36.837,66.679z M32.307,67.763
			c0.084-0.111,0.212-0.223,0.403-0.27c0.555-0.131,1.013,0.354,1.309,0.733c0.097-0.388,0.181-0.759,0.393-1.105
			c0.225-0.367,0.39-0.428,0.728-0.088c-0.324,0.116-0.717,0.392-0.655,0.964c0.052,0.5,0.245,0.836,0.786,0.788
			c0.661-0.061,1.173-0.705,1.274-1.343c0.031-0.004,0.062-0.008,0.092-0.017c0.173,0.557,0.792,1.091,1.367,1.107
			c1.396,0.042,1.744-1.973-0.209-1.897l-0.072,0.004c0.181-0.326,0.492-0.418,0.83-0.466c0.159-0.023,0.448-0.039,0.448-0.039
			c0.03-0.276-0.001-0.608,0.127-0.856c0.13-0.249,0.375-0.463,0.427-0.505c0.053,0.042,0.297,0.256,0.428,0.505
			c0.129,0.248,0.099,0.58,0.128,0.856c0,0,0.291,0.015,0.448,0.039c0.337,0.048,0.649,0.14,0.83,0.466l-0.072-0.004
			c-1.953-0.076-1.605,1.939-0.209,1.897c0.576-0.017,1.194-0.55,1.367-1.107c0.031,0.009,0.061,0.013,0.094,0.017
			c0.099,0.638,0.612,1.283,1.273,1.343c0.541,0.049,0.732-0.288,0.785-0.788c0.063-0.572-0.33-0.848-0.626-0.993
			c0.311-0.313,0.474-0.25,0.699,0.117c0.213,0.347,0.296,0.718,0.393,1.105c0.296-0.379,0.754-0.865,1.308-0.733
			c0.191,0.044,0.32,0.158,0.404,0.27c-0.868,0.516-1.095,1.178-1.429,2.049C45.1,69.745,44.5,69.605,43.7,69.467
			c-1.067-0.188-2.489-0.373-3.964-0.388h-0.189h-0.175c-1.474,0.015-2.897,0.2-3.965,0.388c-0.798,0.141-1.397,0.279-1.672,0.346
			C33.402,68.941,33.175,68.279,32.307,67.763z M32.952,72.451c0.008-0.059,0.487-0.579,0.487-0.579s-0.271-0.276-0.322-0.364
			c-0.05-0.083-0.094-0.229-0.084-0.324c0.007-0.099-0.015-0.379,0.697-0.375c0.714,0.006,0.746,0.242,0.741,0.405
			c-0.008,0.322-0.384,0.659-0.384,0.659l0.481,0.585v0.104h-1.614C32.952,72.563,32.945,72.509,32.952,72.451z M32.662,95.559
			h-1.614c0,0-0.008-0.051,0-0.108c0.009-0.06,0.486-0.58,0.486-0.58s-0.272-0.276-0.322-0.362
			c-0.051-0.085-0.093-0.229-0.086-0.326c0.008-0.098-0.015-0.379,0.699-0.375c0.712,0.002,0.746,0.244,0.74,0.407
			c-0.009,0.32-0.384,0.657-0.384,0.657l0.481,0.585V95.559L32.662,95.559z M33.313,93.671c-0.954-0.958-1.711-1.802-2.021-2.666
			l4.197,4.211C34.849,94.878,33.99,94.35,33.313,93.671z M36.401,95.295l-5.262-5.285l-0.003-0.748l5.266,5.29L36.401,95.295
			L36.401,95.295z M36.401,93.712l-5.268-5.292v-0.745l5.268,5.29V93.712z M36.401,92.125l-5.27-5.29v-0.742l5.27,5.289V92.125z
			 M36.401,88.958l-2.875-2.888l-0.094-0.002c0,0-0.028-0.234,0.011-0.383c0.039-0.146,0.136-0.354,0.204-0.412
			c0.068-0.06,0.244-0.234,0.52-0.234s0.293,0.371,0.293,0.525c0,0.158-0.078,0.504-0.058,0.508H34.27l2.13,2.131L36.401,88.958
			L36.401,88.958z M36.403,86.07h-0.552l0.55,0.552v0.751c0,0,0-0.002-1.297-1.305h0.293c0,0,0-0.07-0.01-0.344
			c-0.009-0.273,0.078-0.521,0.205-0.758c0.126-0.232,0.283-0.154,0.283-0.154c-0.011-0.44-0.107-0.552-0.244-0.737
			c-0.115-0.155-0.35-0.539-1.455-0.46c-1.104,0.08-1.007,0-1.29-0.145c-0.281-0.148-0.383-0.393-0.403-0.533
			c-0.021-0.14-0.058-0.117-0.058-0.117s-0.136,0.099-0.215,0.259c-0.077,0.159-0.039,0.194-0.039,0.194s-0.05-0.029-0.165-0.194
			c-0.117-0.167-0.205-0.161-0.205-0.161s-0.069,0.07-0.118,0.229c-0.049,0.155-0.092,0.369-0.028,0.625
			c0.069,0.285,0,0.479-0.05,0.533c-0.049,0.053-0.04,0.078,0.029,0.127c0.068,0.049,0.155,0.039,0.477,0.076
			c0.321,0.04,0.349,0.372,0.379,0.664c0.029,0.294-0.155,0.895-0.155,0.895h0.349l3.713,3.729v0.744l-4.454-4.472l-0.818-0.006
			c0-5.104,0.01-13.016,0.01-13.016h5.26l0.002,12.734v0.287h0.006V86.07z M38.745,99.163h-1.613c0,0-0.009-0.052,0-0.108
			c0.006-0.061,0.484-0.58,0.484-0.58s-0.272-0.276-0.322-0.363c-0.049-0.084-0.092-0.229-0.084-0.326
			c0.008-0.098-0.016-0.377,0.698-0.375c0.713,0.005,0.745,0.242,0.742,0.406c-0.008,0.322-0.384,0.658-0.384,0.658l0.48,0.584
			L38.745,99.163L38.745,99.163z M38.745,83.333h-1.613c0,0-0.009-0.05,0-0.11c0.006-0.057,0.484-0.58,0.484-0.58
			s-0.272-0.274-0.322-0.36c-0.049-0.085-0.092-0.228-0.084-0.324c0.008-0.099-0.016-0.379,0.698-0.374
			c0.713,0.003,0.745,0.24,0.742,0.402c-0.008,0.322-0.384,0.658-0.384,0.658l0.48,0.586L38.745,83.333L38.745,83.333z
			 M38.745,72.563h-1.613c0,0-0.009-0.054,0-0.11c0.006-0.06,0.484-0.579,0.484-0.579s-0.272-0.275-0.322-0.364
			c-0.049-0.083-0.092-0.229-0.084-0.325c0.008-0.098-0.016-0.377,0.698-0.373c0.713,0.006,0.745,0.241,0.742,0.404
			c-0.008,0.322-0.384,0.659-0.384,0.659l0.48,0.585L38.745,72.563L38.745,72.563z M39.209,70.039h-4.672
			c0.379-0.087,0.773-0.173,1.003-0.205c1.306-0.206,2.958-0.378,4.008-0.378c1.063,0,2.716,0.157,4.02,0.376
			c0.387,0.066,0.745,0.141,1.049,0.207h-5.069H39.209L39.209,70.039z M49.466,91.877c-0.361,1.256-1.08,2.434-2.017,3.491h-7.902
			V90.3h10.161C49.677,90.839,49.609,91.382,49.466,91.877z M49.741,85.303H39.548v-5.158H49.74L49.741,85.303L49.741,85.303z
			 M49.741,70.706v5.206H39.548v-5.206H49.741z"/>
	</g>
	<g>
		<g>
			<g>
				<path fill="#FFFFFF" d="M317.034,53.995c-1.488,1.039-3.35,1.45-5.201,1.45c-1.607,0-3.191-0.241-4.606-0.931
					c-0.545-0.272-0.58-0.48-0.58-1.403c0-1.703,0.136-3.066,0.17-3.61c0.022-0.239,0.062-0.657,0.396-0.657
					c0.32,0,0.362,0.218,0.362,0.497c0,0.412,0.013,0.826,0.101,1.231c0.492,2.429,2.656,3.367,4.905,3.367
					c3.185,0,4.733-2.281,4.733-4.394c0-2.284-0.945-3.612-3.861-6.02l-1.527-1.257c-3.62-2.972-4.461-5.109-4.461-7.466
					c0-3.717,2.789-6.238,7.157-6.238c1.333,0,2.326,0.135,3.185,0.342c0.645,0.135,0.903,0.167,1.162,0.167
					c0.273,0,0.465,0.07,0.465,0.361c0,0.17-0.135,1.292-0.135,3.601c0,0.229,0.024,0.905-0.362,0.905
					c-0.325,0-0.365-0.306-0.396-0.552c-0.033-0.4-0.235-1.3-0.428-1.652c-0.183-0.338-1.063-1.735-4.137-1.735
					c-2.288,0-4.055,1.417-4.055,3.816c0,1.871,0.9,2.992,4.098,5.609l0.951,0.747c4.024,3.173,5.005,5.311,5.005,8.079
					C319.976,49.67,319.422,52.298,317.034,53.995z"/>
			</g>
			<g>
				<path fill="#FFFFFF" d="M179.655,40.085c1.213,1.364,5.491,6.136,9.883,10.871c4.014,4.316,9.468,9.883,9.885,10.262
					c2.006,2.007,2.459,2.425,2.765,2.425c0.264,0,0.34-0.189,0.34-2.689l0.077-22.192c0-2.273,0.15-3.105,1.401-3.372
					c0.453-0.113,0.717-0.113,0.908-0.113c0.265,0,0.416-0.113,0.416-0.265c0-0.227-0.265-0.266-0.681-0.266
					c-1.552,0-2.803,0.114-3.219,0.114c-0.417,0-2.234-0.114-3.938-0.114c-0.454,0-0.757,0.038-0.757,0.266
					c0,0.151,0.038,0.265,0.303,0.265c0.303,0,1.173,0.038,1.857,0.189c1.173,0.303,1.438,1.137,1.477,3.599l0.417,19.239
					c-1.212-1.25-5.339-5.87-9.089-9.885c-5.833-6.248-11.475-12.346-12.043-12.99c-0.379-0.377-1.022-1.211-1.325-1.211
					c-0.303,0-0.417,0.416-0.417,1.895l-0.038,21.7c0,3.446-0.189,4.544-1.137,4.81c-0.568,0.19-1.249,0.227-1.552,0.227
					c-0.19,0-0.303,0.075-0.303,0.228c0,0.266,0.227,0.304,0.606,0.304c1.704,0,3.294-0.114,3.636-0.114
					c0.34,0,1.854,0.114,4.013,0.114c0.454,0,0.681-0.076,0.681-0.304c0-0.152-0.113-0.228-0.302-0.228
					c-0.341,0-1.174-0.037-1.895-0.227c-1.021-0.303-1.4-1.288-1.476-4.392L179.655,40.085z"/>
			</g>
			<g>
				<path fill="#FFFFFF" d="M218.447,45.728c0-5.909,0-6.969,0.075-8.18c0.076-1.326,0.38-1.97,1.401-2.161
					c0.456-0.075,0.682-0.113,0.946-0.113c0.152,0,0.304-0.075,0.304-0.225c0-0.227-0.188-0.305-0.605-0.305
					c-1.137,0-3.521,0.114-3.711,0.114s-2.577-0.114-3.825-0.114c-0.417,0-0.607,0.076-0.607,0.305c0,0.15,0.151,0.225,0.302,0.225
					c0.267,0,0.759,0.038,1.175,0.151c0.833,0.19,1.211,0.834,1.287,2.122c0.075,1.211,0.075,2.271,0.075,8.18v6.665
					c0,3.637,0,6.628-0.189,8.219c-0.151,1.097-0.341,1.93-1.098,2.082c-0.342,0.076-0.796,0.151-1.136,0.151
					c-0.228,0-0.303,0.114-0.303,0.229c0,0.226,0.188,0.303,0.604,0.303c1.138,0,3.524-0.114,3.713-0.114s2.575,0.114,4.657,0.114
					c0.417,0,0.607-0.114,0.607-0.303c0-0.114-0.077-0.229-0.304-0.229c-0.339,0-1.173-0.075-1.705-0.151
					c-1.135-0.151-1.362-0.984-1.475-2.082c-0.191-1.591-0.191-4.583-0.191-8.219v-6.665L218.447,45.728L218.447,45.728z"/>
			</g>
			<g>
				<path fill="#FFFFFF" d="M233.005,39.366c-0.566-1.477-1.022-2.651-1.022-3.143c0-0.267,0.076-0.568,0.493-0.759
					c0.34-0.151,1.021-0.189,1.437-0.189c0.266,0,0.379-0.075,0.379-0.265c0-0.189-0.342-0.267-1.022-0.267
					c-1.438,0-3.143,0.115-3.522,0.115c-0.456,0-2.615-0.115-4.432-0.115c-0.606,0-0.984,0.039-0.984,0.267
					c0,0.151,0.075,0.265,0.303,0.265c0.226,0,0.871,0,1.438,0.151c1.326,0.379,1.894,0.795,2.726,2.917l9.279,23.214
					c0.719,1.819,0.91,2.348,1.364,2.348c0.377,0,0.53-0.606,1.591-2.876c0.87-1.857,2.575-5.946,4.885-11.476
					c1.932-4.658,3.824-9.203,4.24-10.264c1.023-2.575,1.591-3.219,2.083-3.559c0.72-0.456,1.552-0.456,1.817-0.456
					c0.304,0,0.455-0.075,0.455-0.265c0-0.189-0.226-0.267-0.644-0.267c-1.098,0-2.727,0.115-2.954,0.115
					c-0.455,0-2.196-0.115-3.711-0.115c-0.606,0-0.835,0.076-0.835,0.305c0,0.188,0.191,0.226,0.419,0.226
					c0.416,0,0.984,0,1.438,0.151c0.378,0.19,0.493,0.568,0.493,0.871c0,0.342-0.151,0.871-0.342,1.439
					c-0.833,2.727-5.906,15.944-8.104,21.019L233.005,39.366z"/>
			</g>
			<g>
				<path fill="#FFFFFF" d="M260.384,52.395c0,3.636,0,6.627-0.19,8.218c-0.152,1.097-0.341,1.931-1.098,2.082
					c-0.341,0.076-0.796,0.151-1.136,0.151c-0.227,0-0.304,0.114-0.304,0.228c0,0.226,0.19,0.303,0.607,0.303
					c1.136,0,3.522-0.114,3.711-0.114c1.097,0,3.637,0.228,9.354,0.228c1.478,0,1.78,0,2.045-0.985
					c0.19-0.795,0.492-3.37,0.492-3.674c0-0.265,0-0.568-0.227-0.568c-0.189,0-0.266,0.152-0.34,0.568
					c-0.267,1.553-0.72,2.309-1.705,2.727c-0.983,0.418-2.65,0.418-3.635,0.418c-3.712,0-4.279-0.492-4.394-3.107
					c-0.038-0.794,0-5.188,0-6.474v-3.333c0-0.15,0.075-0.265,0.266-0.265c0.644,0,4.393,0.076,5.415,0.189
					c1.478,0.151,1.818,0.795,1.97,1.326c0.151,0.493,0.151,0.871,0.151,1.249c0,0.19,0.075,0.341,0.265,0.341
					c0.267,0,0.267-0.416,0.267-0.719c0-0.265,0.075-1.665,0.15-2.425c0.113-1.249,0.303-1.894,0.303-2.121
					c0-0.228-0.076-0.304-0.19-0.304c-0.151,0-0.301,0.19-0.568,0.494c-0.341,0.378-0.87,0.454-1.781,0.53
					c-0.87,0.075-5.528,0.075-6.021,0.075c-0.188,0-0.227-0.115-0.227-0.378V36.602c0-0.266,0.075-0.378,0.227-0.378
					c0.416,0,4.544,0.039,5.189,0.113c2.044,0.228,2.424,0.683,2.688,1.288c0.19,0.455,0.229,1.098,0.229,1.363
					c0,0.303,0.074,0.494,0.301,0.494c0.151,0,0.227-0.228,0.266-0.417c0.077-0.455,0.15-2.121,0.19-2.5
					c0.115-1.061,0.302-1.514,0.302-1.781c0-0.189-0.038-0.341-0.149-0.341c-0.191,0-0.342,0.152-0.532,0.19
					c-0.303,0.075-0.909,0.151-1.628,0.191c-0.87,0.038-8.407,0.038-8.672,0.038c-0.19,0-2.576-0.114-4.28-0.114
					c-0.417,0-0.605,0.077-0.605,0.305c0,0.151,0.15,0.225,0.303,0.225c0.341,0,0.984,0.038,1.287,0.113
					c1.25,0.266,1.553,0.873,1.629,2.16c0.075,1.211,0.075,2.271,0.075,8.18v6.666l0,0V52.395z"/>
			</g>
			<g>
				<path fill="#FFFFFF" d="M330.542,45.728c0-5.909,0-6.969,0.076-8.18c0.076-1.326,0.378-1.97,1.402-2.161
					c0.453-0.075,0.681-0.113,0.947-0.113c0.149,0,0.301-0.075,0.301-0.225c0-0.227-0.189-0.305-0.605-0.305
					c-1.138,0-3.522,0.114-3.713,0.114c-0.189,0-2.575-0.114-3.825-0.114c-0.417,0-0.606,0.076-0.606,0.305
					c0,0.15,0.151,0.225,0.301,0.225c0.267,0,0.759,0.038,1.175,0.151c0.833,0.19,1.211,0.834,1.289,2.122
					c0.075,1.211,0.075,2.271,0.075,8.18v6.665c0,3.637,0,6.628-0.189,8.219c-0.151,1.097-0.342,1.93-1.099,2.082
					c-0.341,0.076-0.795,0.151-1.136,0.151c-0.228,0-0.302,0.114-0.302,0.229c0,0.226,0.188,0.303,0.606,0.303
					c1.135,0,3.521-0.114,3.71-0.114c0.191,0,2.575,0.114,4.658,0.114c0.417,0,0.606-0.114,0.606-0.303
					c0-0.114-0.076-0.229-0.304-0.229c-0.34,0-1.173-0.075-1.703-0.151c-1.138-0.151-1.364-0.984-1.478-2.082
					c-0.19-1.591-0.19-4.583-0.19-8.219v-6.665L330.542,45.728L330.542,45.728z"/>
			</g>
			<g>
				<path fill="#FFFFFF" d="M148.323,31.656c-0.734-1.91-1.322-3.426-1.322-4.063c0-0.343,0.099-0.734,0.637-0.979
					c0.441-0.196,1.321-0.246,1.859-0.246c0.344,0,0.491-0.097,0.491-0.344c0-0.244-0.441-0.342-1.321-0.342
					c-1.861,0-4.065,0.146-4.554,0.146c-0.587,0-3.377-0.146-5.728-0.146c-0.782,0-1.271,0.049-1.271,0.342
					c0,0.196,0.097,0.344,0.391,0.344s1.125,0,1.861,0.196c1.713,0.489,2.447,1.028,3.524,3.768l11.994,30.008
					c0.929,2.349,1.174,3.035,1.762,3.035c0.489,0,0.685-0.785,2.056-3.72c1.125-2.4,3.328-7.686,6.314-14.833
					c2.496-6.021,4.944-11.896,5.482-13.266c1.321-3.329,2.056-4.161,2.692-4.601c0.931-0.587,2.007-0.587,2.35-0.587
					c0.393,0,0.587-0.097,0.587-0.344c0-0.244-0.293-0.342-0.832-0.342c-1.419,0-3.525,0.146-3.818,0.146
					c-0.587,0-2.839-0.146-4.798-0.146c-0.783,0-1.077,0.098-1.077,0.391c0,0.245,0.245,0.294,0.54,0.294
					c0.538,0,1.272,0,1.859,0.196c0.49,0.245,0.636,0.734,0.636,1.125c0,0.441-0.196,1.126-0.441,1.861
					c-1.076,3.524-7.636,20.608-10.476,27.169L148.323,31.656z"/>
			</g>
			<path fill="#FFFFFF" d="M393.075,63.073c-0.04-0.189-0.2-0.228-0.426-0.228c-0.381,0-0.957-0.036-1.563-0.227
				c-0.842-0.227-2.069-0.833-4.14-4.204c-3.521-5.756-12.755-21.397-13.626-22.835c-0.7-1.174-0.893-1.364-1.119-1.364
				c-0.227,0-0.331,0.226-0.523,1.478l-3.653,23.518c-0.284,1.894-0.739,3.333-2.432,3.561c-0.294,0.038-0.818,0.075-1.082,0.075
				c-0.188,0-0.324,0.075-0.294,0.228c0.049,0.226,0.292,0.304,0.785,0.304c1.779,0,3.838-0.114,4.254-0.114
				c0.417,0,2.07,0.114,2.979,0.114c0.34,0,0.552-0.076,0.505-0.304c-0.034-0.152-0.162-0.228-0.427-0.228h-0.379
				c-0.644,0-1.512-0.34-1.67-1.098c-0.143-0.683-0.146-1.592-0.003-2.537l0.863-6.703c0.037-0.189,0.125-0.305,0.315-0.305h8.141
				c0.19,0,0.281,0.076,0.389,0.229l5.483,9.315c0.354,0.605,0.197,0.946-0.014,1.022c-0.145,0.039-0.24,0.114-0.211,0.265
				c0.049,0.228,0.465,0.228,1.191,0.265c2.628,0.076,5.395,0.076,5.962,0.076C392.797,63.376,393.121,63.299,393.075,63.073z
				 M378.8,50.84h-7.234c-0.112,0-0.204-0.074-0.168-0.264l1.184-10.226c0.07-0.569,0.258-0.569,0.568,0l5.748,10.226
				C378.964,50.727,378.991,50.84,378.8,50.84z"/>
			<path fill="#FFFFFF" d="M352.221,36.374l4.772,0.076c3.635,0.076,4.507,0.946,4.658,2.083l0.038,0.417
				c0.038,0.531,0.114,0.644,0.302,0.644c0.152,0,0.265-0.151,0.265-0.494c0-0.416,0.114-3.029,0.114-4.165
				c0-0.227,0-0.454-0.19-0.454c-0.302,0-1.327,0.379-3.749,0.379H344.23c-0.455,0-1.895-0.076-2.993-0.19
				c-1.022-0.075-1.402-0.454-1.667-0.454c-0.151,0-0.302,0.492-0.377,0.718c-0.076,0.302-0.833,3.562-0.833,3.939
				c0,0.226,0.075,0.34,0.188,0.34c0.151,0,0.267-0.076,0.379-0.378c0.114-0.264,0.226-0.53,0.643-1.175
				c0.608-0.909,1.516-1.173,3.863-1.211l5.604-0.076v16.021c0,3.637,0,6.628-0.188,8.219c-0.152,1.097-0.342,1.93-1.099,2.082
				c-0.34,0.076-0.795,0.151-1.137,0.151c-0.227,0-0.304,0.114-0.304,0.228c0,0.226,0.19,0.303,0.607,0.303
				c1.135,0,3.521-0.114,3.71-0.114s2.575,0.114,4.658,0.114c0.417,0,0.605-0.114,0.605-0.303c0-0.114-0.075-0.228-0.303-0.228
				c-0.341,0-1.174-0.075-1.704-0.151c-1.138-0.151-1.364-0.984-1.479-2.082c-0.189-1.591-0.189-4.583-0.189-8.219v-16.02H352.221z"
				/>
			<path fill="#FFFFFF" d="M402.198,36.374l4.771,0.076c3.636,0.076,4.507,0.946,4.659,2.083l0.037,0.417
				c0.039,0.531,0.113,0.644,0.303,0.644c0.151,0,0.266-0.151,0.266-0.494c0-0.416,0.111-3.029,0.111-4.165
				c0-0.227,0-0.454-0.188-0.454c-0.305,0-1.325,0.379-3.749,0.379h-14.203c-0.454,0-1.892-0.076-2.991-0.19
				c-1.021-0.075-1.402-0.454-1.666-0.454c-0.15,0-0.303,0.492-0.378,0.718c-0.075,0.302-0.833,3.562-0.833,3.939
				c0,0.226,0.076,0.34,0.189,0.34c0.15,0,0.267-0.076,0.379-0.378c0.115-0.264,0.227-0.53,0.645-1.175
				c0.606-0.909,1.516-1.173,3.862-1.211l5.604-0.076v16.021c0,3.637,0,6.628-0.188,8.219c-0.152,1.097-0.342,1.93-1.098,2.082
				c-0.342,0.076-0.797,0.151-1.137,0.151c-0.228,0-0.304,0.114-0.304,0.228c0,0.226,0.188,0.303,0.606,0.303
				c1.137,0,3.521-0.114,3.709-0.114c0.189,0,2.576,0.114,4.66,0.114c0.416,0,0.604-0.114,0.604-0.303
				c0-0.114-0.076-0.228-0.306-0.228c-0.338,0-1.172-0.075-1.702-0.151c-1.138-0.151-1.364-0.984-1.476-2.082
				c-0.19-1.591-0.19-4.583-0.19-8.219L402.198,36.374L402.198,36.374z"/>
			<path fill="#FFFFFF" d="M316.653,60.902c-0.944,0.258-1.626,1.031-2.561,1.254c-3.595,0.717-7.77,1.477-9.983-2.021
				c-2.195-3.613-4.611-8.191-8.922-9.597c3.399-3.137,4.568-5.937,4.568-8.733c0-2.614-1.666-4.47-2.613-5.15
				c-2.008-1.439-4.546-1.666-6.932-1.666c-1.173,0-4.052,0.112-4.468,0.112c-0.189,0-2.575-0.112-4.279-0.112
				c-0.417,0-0.606,0.076-0.606,0.301c0,0.152,0.151,0.228,0.304,0.228c0.34,0,0.984,0.038,1.287,0.114
				c1.25,0.265,1.554,0.87,1.627,2.159c0.077,1.211,0.077,2.271,0.077,8.18v6.665c0,3.636,0,6.627-0.189,8.219
				c-0.152,1.097-0.342,1.931-1.099,2.082c-0.34,0.075-0.795,0.151-1.136,0.151c-0.227,0-0.303,0.114-0.303,0.228
				c0,0.228,0.19,0.303,0.607,0.303c1.138,0,3.521-0.112,3.56-0.112c0.189,0,2.575,0.112,4.659,0.112
				c0.418,0,0.606-0.112,0.606-0.303c0-0.114-0.075-0.228-0.302-0.228c-0.342,0-1.175-0.076-1.705-0.151
				c-1.137-0.151-1.363-0.985-1.479-2.082c-0.188-1.592-0.188-4.583-0.188-8.219v-0.909c0-0.189,0.076-0.303,0.265-0.303
				l4.661,0.075c3.849,2.538,5.688,6.614,8.564,9.951c3.482,3.748,9.147,3.871,13.368,2.079
				C314.977,62.813,316.846,62.22,316.653,60.902z M294.265,49.605c-0.872,0.606-1.932,0.719-2.84,0.719
				c-1.667,0-3.41-0.265-3.978-0.607c-0.188-0.113-0.265-0.265-0.265-0.453V36.881c0-0.227,0.114-0.379,0.303-0.455
				c0.378-0.113,1.401-0.228,2.537-0.228c4.051,0,6.552,2.84,6.552,7.576C296.574,46.652,295.589,48.697,294.265,49.605z"/>
		</g>
		<g>
			<path fill="#FFFFFF" d="M167.475,84.791c-5.47-4.62-13.878-4.282-18.427-4.282c-2.757,0-5.652,0.112-6.205,0.112
				c-0.229,0-3.125-0.112-5.193-0.112c-0.505,0-0.735,0.075-0.735,0.302c0,0.148,0.184,0.226,0.369,0.226
				c0.414,0,1.195,0.036,1.562,0.112c1.517,0.263,1.885,0.863,1.977,2.141c0.091,1.203,0.091,2.254,0.091,8.113v6.613
				c0,3.605,0,6.575-0.229,8.15c-0.184,1.09-0.414,1.916-1.333,2.066c-0.413,0.074-0.965,0.149-1.378,0.149
				c-0.275,0-0.367,0.112-0.367,0.228c0,0.225,0.229,0.3,0.735,0.3c1.378,0,4.274-0.111,4.503-0.111c0.46,0,6.25,0.45,10.202,0.45
				c7.813,0,11.949-2.631,13.925-4.321c2.574-2.215,4.963-5.86,4.963-10.593C171.932,89.863,169.772,86.745,167.475,84.791z
				 M165.67,104.477c-2.71,2.217-8.214,3.492-12.487,3.492c-5.422,0-7.214-0.789-7.813-1.502c-0.367-0.412-0.458-1.912-0.505-2.854
				c-0.045-0.715-0.093-4.17-0.093-8.152v-4.658c0-2.895,0-6.725,0.048-8.002c0-0.412,0.138-0.601,0.55-0.751
				c0.369-0.149,2.069-0.264,2.987-0.264c5.47,0,12.259,0.528,16.578,4.245c1.884,1.613,4.413,4.695,4.413,9.468
				C169.348,98.953,168.061,102.563,165.67,104.477z"/>
			<g>
				<path fill="#FFFFFF" d="M152.171,97.248c0,2.328,0,4.244-0.121,5.263c-0.096,0.703-0.219,1.237-0.701,1.333
					c-0.219,0.049-0.51,0.098-0.728,0.098c-0.146,0-0.193,0.072-0.193,0.146c0,0.146,0.122,0.194,0.387,0.194
					c0.728,0,2.254-0.073,2.376-0.073c0.705,0,2.328,0.146,5.99,0.146c0.946,0,1.14,0,1.31-0.629
					c0.121-0.511,0.316-2.158,0.316-2.352c0-0.171,0-0.365-0.146-0.365c-0.122,0-0.17,0.098-0.219,0.365
					c-0.169,0.993-0.461,1.479-1.091,1.746c-0.63,0.266-1.698,0.266-2.328,0.266c-2.377,0-2.74-0.314-2.813-1.988
					c-0.024-0.508,0-3.321,0-4.146v-2.134c0-0.097,0.048-0.171,0.17-0.171c0.412,0,2.813,0.05,3.468,0.123
					c0.945,0.096,1.164,0.51,1.26,0.849c0.099,0.315,0.099,0.558,0.099,0.798c0,0.123,0.048,0.221,0.17,0.221
					c0.17,0,0.17-0.267,0.17-0.461c0-0.17,0.048-1.065,0.097-1.552c0.073-0.801,0.195-1.213,0.195-1.358
					c0-0.145-0.049-0.192-0.123-0.192c-0.096,0-0.195,0.121-0.364,0.313c-0.218,0.242-0.558,0.291-1.139,0.342
					c-0.558,0.049-3.542,0.049-3.856,0.049c-0.121,0-0.146-0.074-0.146-0.243v-6.694c0-0.172,0.049-0.242,0.146-0.242
					c0.267,0,2.91,0.021,3.322,0.07c1.31,0.147,1.551,0.438,1.721,0.826c0.122,0.29,0.146,0.703,0.146,0.873
					c0,0.193,0.048,0.314,0.194,0.314c0.098,0,0.147-0.146,0.17-0.268c0.049-0.29,0.098-1.355,0.121-1.6
					c0.075-0.678,0.195-0.971,0.195-1.143c0-0.119-0.024-0.216-0.097-0.216c-0.121,0-0.218,0.097-0.339,0.122
					c-0.195,0.049-0.582,0.098-1.042,0.12c-0.558,0.024-5.383,0.024-5.553,0.024c-0.122,0-1.648-0.073-2.739-0.073
					c-0.268,0-0.388,0.049-0.388,0.194c0,0.099,0.096,0.146,0.194,0.146c0.219,0,0.631,0.023,0.824,0.072
					c0.801,0.172,0.994,0.559,1.042,1.383c0.049,0.775,0.049,1.455,0.049,5.236v4.267L152.171,97.248L152.171,97.248z"/>
			</g>
		</g>
		<g>
			<g>
				<path fill="#FFFFFF" d="M300.224,77.505c0.189,0,0.341-0.075,0.341-0.19c0-0.146-0.341-0.262-0.72-0.526
					c-1.554-0.986-4.263-2.861-4.564-3.164c-0.341-0.34-0.38-0.604-0.569-0.604c-0.15,0-0.302,0.073-0.605,0.189
					c-0.456,0.189-1.479,0.492-2.273,0.717c-0.265,0.077-0.417,0.114-0.417,0.305c0,0.189,0.303,0.343,1.098,0.645
					C293.121,75.102,299.543,77.505,300.224,77.505z"/>
				<path fill="#FFFFFF" d="M292.726,98.068c0,3.636,0,6.629-0.188,8.22c-0.151,1.098-0.341,1.933-1.099,2.082
					c-0.341,0.073-0.794,0.151-1.136,0.151c-0.226,0-0.302,0.113-0.302,0.227c0,0.229,0.188,0.302,0.606,0.302
					c1.135,0,3.521-0.112,3.711-0.112c1.099,0,3.638,0.228,9.355,0.228c1.476,0,1.779,0,2.044-0.985
					c0.19-0.795,0.493-3.371,0.493-3.674c0-0.265,0-0.568-0.228-0.568c-0.189,0-0.265,0.151-0.342,0.568
					c-0.263,1.555-0.718,2.311-1.704,2.729c-0.985,0.416-2.649,0.416-3.637,0.416c-3.711,0-4.277-0.493-4.392-3.104
					c-0.038-0.794,0-5.188,0-6.478v-3.332c0-0.15,0.076-0.266,0.264-0.266c0.645,0,4.394,0.075,5.417,0.189
					c1.477,0.152,1.819,0.794,1.971,1.326c0.15,0.492,0.15,0.871,0.15,1.25c0,0.188,0.075,0.342,0.266,0.342
					c0.265,0,0.265-0.419,0.265-0.721c0-0.266,0.075-1.668,0.151-2.426c0.114-1.248,0.302-1.894,0.302-2.121
					c0-0.227-0.075-0.301-0.189-0.301c-0.152,0-0.305,0.188-0.568,0.492c-0.342,0.378-0.871,0.454-1.781,0.529
					c-0.87,0.076-5.529,0.076-6.021,0.076c-0.188,0-0.226-0.115-0.226-0.379V82.275c0-0.265,0.076-0.379,0.226-0.379
					c0.417,0,4.544,0.037,5.189,0.114c2.044,0.228,2.425,0.681,2.689,1.286c0.188,0.452,0.228,1.1,0.228,1.364
					c0,0.302,0.074,0.491,0.303,0.491c0.151,0,0.227-0.229,0.265-0.416c0.077-0.454,0.151-2.122,0.189-2.5
					c0.114-1.063,0.302-1.514,0.302-1.779c0-0.189-0.037-0.343-0.152-0.343c-0.188,0-0.34,0.153-0.529,0.19
					c-0.304,0.073-0.909,0.15-1.628,0.188c-0.872,0.038-8.408,0.038-8.673,0.038c-0.191,0-2.576-0.114-4.279-0.114
					c-0.417,0-0.606,0.076-0.606,0.304c0,0.152,0.152,0.225,0.303,0.225c0.341,0,0.985,0.041,1.288,0.115
					c1.248,0.266,1.55,0.871,1.627,2.158c0.076,1.215,0.076,2.272,0.076,8.182v6.666l0,0V98.068z"/>
			</g>
			<g>
				<path fill="#FFFFFF" d="M216.246,77.209c-0.734-1.912-1.32-3.428-1.32-4.063c0-0.345,0.098-0.736,0.636-0.98
					c0.44-0.193,1.322-0.243,1.86-0.243c0.342,0,0.49-0.1,0.49-0.344c0-0.245-0.44-0.343-1.322-0.343
					c-1.859,0-4.063,0.146-4.552,0.146c-0.586,0-3.377-0.146-5.727-0.146c-0.784,0-1.272,0.051-1.272,0.343
					c0,0.194,0.098,0.344,0.393,0.344s1.125,0,1.86,0.194c1.712,0.49,2.447,1.029,3.523,3.77l11.993,30.008
					c0.931,2.349,1.175,3.035,1.762,3.035c0.489,0,0.686-0.783,2.057-3.722c1.125-2.399,3.328-7.687,6.314-14.833
					c2.498-6.02,4.944-11.895,5.483-13.266c1.32-3.33,2.055-4.16,2.692-4.604c0.928-0.586,2.007-0.586,2.349-0.586
					c0.393,0,0.588-0.102,0.588-0.344c0-0.245-0.293-0.344-0.832-0.344c-1.419,0-3.524,0.146-3.819,0.146
					c-0.587,0-2.838-0.146-4.796-0.146c-0.784,0-1.077,0.1-1.077,0.394c0,0.245,0.244,0.294,0.538,0.294c0.54,0,1.273,0,1.861,0.193
					c0.489,0.246,0.636,0.736,0.636,1.127c0,0.439-0.196,1.126-0.441,1.859c-1.077,3.523-7.636,20.606-10.475,27.17L216.246,77.209z
					"/>
			</g>
			<path fill="#FFFFFF" d="M422.708,108.84c-0.039-0.188-0.199-0.229-0.426-0.229c-0.379,0-0.954-0.037-1.561-0.226
				c-0.845-0.229-2.07-0.833-4.144-4.202c-3.521-5.758-12.754-21.397-13.623-22.838c-0.702-1.174-0.894-1.361-1.122-1.361
				c-0.227,0-0.329,0.227-0.521,1.478l-3.65,23.517c-0.283,1.896-0.738,3.334-2.434,3.562c-0.295,0.037-0.817,0.075-1.084,0.075
				c-0.188,0-0.322,0.076-0.291,0.228c0.047,0.228,0.291,0.306,0.782,0.306c1.779,0,3.841-0.115,4.257-0.115
				c0.414,0,2.067,0.115,2.978,0.115c0.341,0,0.551-0.076,0.505-0.306c-0.032-0.149-0.162-0.228-0.427-0.228h-0.378
				c-0.645,0-1.512-0.342-1.672-1.098c-0.144-0.682-0.146-1.593-0.002-2.539l0.862-6.703c0.035-0.188,0.125-0.303,0.315-0.303h8.143
				c0.188,0,0.28,0.075,0.389,0.228l5.479,9.317c0.354,0.604,0.198,0.945-0.014,1.021c-0.142,0.037-0.239,0.112-0.21,0.265
				c0.049,0.229,0.465,0.229,1.192,0.268c2.63,0.074,5.395,0.074,5.962,0.074C422.433,109.145,422.757,109.068,422.708,108.84z
				 M408.435,96.605h-7.231c-0.114,0-0.205-0.072-0.169-0.264l1.183-10.227c0.07-0.567,0.259-0.567,0.569,0l5.746,10.227
				C408.601,96.495,408.623,96.605,408.435,96.605z"/>
			<path fill="#FFFFFF" d="M261.587,108.438c-0.378,0-0.947-0.035-1.514-0.226c-0.795-0.228-1.893-0.834-3.257-4.202
				c-2.31-5.759-8.255-21.396-8.823-22.838c-0.454-1.173-0.606-1.361-0.833-1.361c-0.228,0-0.38,0.229-0.835,1.477l-8.597,23.52
				c-0.682,1.893-1.438,3.332-3.18,3.561c-0.303,0.037-0.833,0.074-1.099,0.074c-0.19,0-0.34,0.076-0.34,0.227
				c0,0.229,0.228,0.305,0.72,0.305c1.78,0,3.863-0.113,4.279-0.113c0.417,0,2.045,0.113,2.954,0.113
				c0.341,0,0.569-0.076,0.569-0.305c0-0.148-0.113-0.227-0.38-0.227h-0.377c-0.645,0-1.439-0.342-1.439-1.099
				c0-0.681,0.188-1.59,0.53-2.536l2.271-6.705c0.076-0.188,0.19-0.302,0.378-0.302h8.143c0.19,0,0.267,0.075,0.34,0.228
				l3.522,9.315c0.229,0.606,0,0.946-0.226,1.023c-0.151,0.036-0.266,0.114-0.266,0.264c0,0.228,0.417,0.228,1.137,0.265
				c2.613,0.078,5.376,0.078,5.944,0.078c0.416,0,0.759-0.078,0.759-0.306C261.968,108.479,261.814,108.438,261.587,108.438z
				 M250.265,96.436h-7.233c-0.114,0-0.189-0.076-0.114-0.266l3.333-10.225c0.191-0.569,0.379-0.569,0.569,0l3.598,10.225
				C250.455,96.32,250.455,96.436,250.265,96.436z"/>
			<path fill="#FFFFFF" d="M272.467,91.404c0-5.909,0-6.969,0.076-8.182c0.077-1.324,0.379-1.971,1.478-2.158
				c0.454-0.074,0.984-0.113,1.249-0.113c0.151,0,0.303-0.074,0.303-0.229c0-0.227-0.19-0.303-0.605-0.303
				c-1.137,0-3.901,0.115-4.091,0.115c-0.189,0-2.576-0.115-4.28-0.115c-0.417,0-0.605,0.076-0.605,0.303
				c0,0.153,0.149,0.229,0.302,0.229c0.34,0,0.984,0.039,1.288,0.113c1.25,0.265,1.554,0.869,1.63,2.158
				c0.074,1.213,0.074,2.271,0.074,8.182v6.664c0,3.636,0,6.629-0.19,8.22c-0.15,1.098-0.34,1.933-1.097,2.082
				c-0.341,0.073-0.795,0.151-1.137,0.151c-0.228,0-0.303,0.113-0.303,0.227c0,0.229,0.189,0.302,0.604,0.302
				c1.136,0,3.37-0.112,3.713-0.112c2.196,0,4.695,0.228,10.149,0.228c2.006,0,2.121-0.153,2.385-1.021
				c0.304-1.101,0.568-3.371,0.568-3.789s-0.037-0.568-0.225-0.568c-0.228,0-0.303,0.189-0.343,0.492
				c-0.113,0.72-0.492,1.666-0.984,2.272c-0.91,1.099-2.576,1.138-4.583,1.138c-2.955,0-3.938-0.268-4.545-0.871
				c-0.68-0.683-0.834-3.105-0.834-8.674v-6.738h0.003V91.404z"/>
			<path fill="#FFFFFF" d="M317.811,85.761c1.21,1.363,5.49,6.138,9.884,10.871c4.013,4.317,9.468,9.884,9.882,10.265
				c2.008,2.006,2.462,2.424,2.765,2.424c0.265,0,0.341-0.19,0.341-2.689l0.075-22.191c0-2.272,0.151-3.104,1.401-3.369
				c0.456-0.113,0.719-0.113,0.909-0.113c0.264,0,0.416-0.113,0.416-0.264c0-0.229-0.265-0.269-0.682-0.269
				c-1.552,0-2.802,0.115-3.219,0.115s-2.235-0.115-3.939-0.115c-0.455,0-0.757,0.039-0.757,0.269c0,0.149,0.039,0.264,0.302,0.264
				c0.304,0,1.176,0.039,1.857,0.189c1.174,0.303,1.439,1.137,1.476,3.598l0.417,19.238c-1.211-1.25-5.341-5.871-9.089-9.883
				c-5.832-6.252-11.475-12.35-12.041-12.992c-0.379-0.381-1.022-1.213-1.327-1.213c-0.302,0-0.415,0.418-0.415,1.896l-0.039,21.699
				c0,3.446-0.189,4.545-1.136,4.811c-0.569,0.189-1.251,0.228-1.554,0.228c-0.188,0-0.303,0.076-0.303,0.228
				c0,0.265,0.227,0.304,0.605,0.304c1.705,0,3.295-0.115,3.635-0.115c0.342,0,1.857,0.115,4.015,0.115
				c0.457,0,0.683-0.076,0.683-0.304c0-0.151-0.114-0.228-0.303-0.228c-0.34,0-1.174-0.037-1.893-0.228
				c-1.022-0.303-1.403-1.286-1.479-4.396L317.811,85.761z"/>
			<path fill="#FFFFFF" d="M366.183,109.583c2.425,0,5.303-0.267,6.818-0.87c0.682-0.303,0.757-0.38,0.985-1.099
				c0.378-1.289,0.834-4.582,0.834-4.849c0-0.303-0.077-0.568-0.265-0.568c-0.228,0-0.305,0.152-0.379,0.568
				c-0.113,0.68-0.605,2.348-1.4,3.18c-1.516,1.554-3.75,1.896-6.59,1.896c-8.103,0-13.67-6.628-13.67-13.862
				c0-3.859,0.643-7.232,3.407-9.883c1.327-1.287,3.673-2.765,8.71-2.765c3.333,0,6.249,1.022,7.573,2.16
				c0.986,0.831,1.592,2.385,1.592,3.862c0,0.529,0.037,0.795,0.301,0.795c0.228,0,0.305-0.229,0.34-0.795
				c0.04-0.569,0.04-2.65,0.116-3.902c0.075-1.362,0.188-1.816,0.188-2.12c0-0.228-0.076-0.378-0.494-0.417
				c-1.211-0.075-2.424-0.303-3.862-0.568c-1.854-0.342-3.976-0.453-5.491-0.453c-5.832,0-9.279,1.78-11.551,4.051
				c-3.37,3.369-4.241,7.803-4.241,10.34c0,3.597,0.909,7.915,4.582,11.209C356.678,108.182,360.504,109.583,366.183,109.583z"/>
			<path fill="#FFFFFF" d="M387.33,91.404c0-5.909,0-6.969,0.076-8.182c0.075-1.324,0.379-1.971,1.401-2.158
				c0.453-0.074,0.682-0.113,0.945-0.113c0.152,0,0.305-0.074,0.305-0.229c0-0.227-0.189-0.303-0.605-0.303
				c-1.137,0-3.521,0.115-3.712,0.115s-2.575-0.115-3.824-0.115c-0.418,0-0.606,0.076-0.606,0.303c0,0.153,0.151,0.229,0.302,0.229
				c0.266,0,0.757,0.039,1.175,0.15c0.833,0.189,1.211,0.834,1.286,2.121c0.076,1.213,0.076,2.271,0.076,8.182v6.664
				c0,3.636,0,6.629-0.189,8.22c-0.152,1.099-0.34,1.933-1.098,2.082c-0.342,0.073-0.795,0.151-1.138,0.151
				c-0.227,0-0.303,0.113-0.303,0.227c0,0.229,0.19,0.302,0.604,0.302c1.138,0,3.522-0.112,3.712-0.112
				c0.189,0,2.576,0.112,4.658,0.112c0.416,0,0.605-0.112,0.605-0.302c0-0.113-0.075-0.227-0.304-0.227
				c-0.341,0-1.173-0.076-1.703-0.151c-1.136-0.152-1.363-0.985-1.478-2.082c-0.189-1.591-0.189-4.584-0.189-8.22v-6.664H387.33z"/>
		</g>
		<g>
			<g>
				<g>
					<path fill="#FFFFFF" d="M205.912,90.163c-1.81-0.242-4.335,0.403-6.443,0.19c-0.042-0.156-0.06-0.313-0.076-0.469l-0.357-1.939
						c-0.414-2.323-1.083-4.543-2.142-6.661c-1.377-2.097-3.552-4.15-6.337-4.036c-3.327,0.497-6.224,3.809-7.384,6.771
						c-2.321,5.933-3.866,11.447-3.413,17.861c0.6,2.776,2.314,6.191,5.517,6.879c0,0,1.613,0.311,1.888,0.321
						c-0.026,0-0.545,8.179-0.545,8.179l0.544,0.784c2.775,0.544,5.986-0.604,7.977-2.415c0-0.482,0-1.327-0.544-1.688
						c-2.052-1.448-4.237,0.861-5.988,1.347c0.117-2.152,0.289-3.903,0.651-5.988c1.273-0.021,2.336-0.042,3.417-0.278
						c3.157-0.873,3.772-2.297,5.403-4.439c1.383-3.633,1.619-7.887,1.517-11.816c2.292-0.363,4.506-0.43,6.438-1.636
						C206.335,90.766,205.973,90.465,205.912,90.163z M195.817,103.768c-1.919,2.678-4.8,3.688-7.933,3.283
						c-2.071-0.051-4.245-0.605-5.255-2.729c-2.526-6.721,0.506-13.594,2.375-19.705c0.859-2.273,2.728-4.699,5.456-4.953
						c2.072-0.1,3.84,1.617,4.802,3.337c0.859,2.174,1.166,2.838,1.609,5.677c0,0,0.295,1.406,0.411,1.648
						c0.016,0.104,0.014,0.177,0.056,0.279c-2.04,0.234-3.989,0.154-5.547-1.103c-0.242,0.12-0.664,0.567-0.724,0.933
						c1.135,2.207,3.902,2.477,6.473,2.308C197.742,96.586,196.986,100.384,195.817,103.768z"/>
					<path fill="#FFFFFF" d="M191.031,84.719c0.241,1.147-0.363,2.174-1.328,2.598c-0.785,0.42-1.69-0.363-1.81-1.088
						c-0.182-1.209,0.845-1.992,1.81-2.535C190.306,83.691,191.031,84.057,191.031,84.719z"/>
				</g>
			</g>
			<g>
				<g>
					<polygon fill="#FFFFFF" points="199.434,69.67 194.046,73.754 195.021,75.236 200.844,71.619 					"/>
					<polygon fill="#FFFFFF" points="179.614,69.67 178.168,71.619 184.026,75.236 184.966,73.754 					"/>
				</g>
				<polygon fill="#FFFFFF" points="188.63,73.715 188.292,66.839 190.721,66.839 190.381,73.715 				"/>
			</g>
		</g>
	</g>
</g>
</svg>
